<?xml version="1.0" encoding="utf-8"?>
<!-- Generator: Adobe Illustrator 18.0.0, SVG Export Plug-In . SVG Version: 6.00 Build 0)  -->
<!DOCTYPE svg PUBLIC "-//W3C//DTD SVG 1.1//EN" "http://www.w3.org/Graphics/SVG/1.1/DTD/svg11.dtd">
<svg version="1.1" xmlns="http://www.w3.org/2000/svg" xmlns:xlink="http://www.w3.org/1999/xlink" x="0px" y="0px"
	 viewBox="0 0 133 101.3" enable-background="new 0 0 133 101.3" xml:space="preserve">
<g id="Fondo">
</g>
<g id="Logo">
</g>
<g id="Layer_4">
	<rect x="0" y="0" fill="#E73A48" width="133" height="101.5"/>
	<path fill="#FFFFFF" d="M66.5,65.4c-6.2,0-11.3,5.1-11.3,11.3c0,6.2,5.1,11.3,11.3,11.3c6.2,0,11.3-5.1,11.3-11.3
		C77.8,70.4,72.8,65.4,66.5,65.4 M69.6,76.9l-5.4,4.3c-0.1,0.1-0.2,0.1-0.4,0.1c-0.2,0-0.3-0.1-0.4-0.2c-0.2-0.2-0.2-0.6,0.1-0.8
		l4.8-3.9l-4.8-3.5c-0.3-0.2-0.3-0.5-0.1-0.8c0.2-0.3,0.5-0.3,0.8-0.1l5.4,4c0.1,0.1,0.2,0.3,0.2,0.4C69.8,76.6,69.7,76.8,69.6,76.9
		"/>
	<g>
		<path fill="#FFFFFF" d="M16.3,53.9c-0.8,0-1.5-0.7-1.5-1.5v-5.3c0-0.7,0-1.5,0-2.4c0-3,0.1-6.1,0.2-9.1c0.1-2.3,0.3-4.2,0.5-6.2
			c0-0.4,0.1-0.8,0.1-1.1l0-0.4c0.1-1,1-1.4,1.6-1.3c0.7,0,1.5,0.6,1.4,1.6l0,0.4c-0.1,0.9-0.1,1.5-0.2,2.7
			c-0.2,2.2-0.3,4.7-0.4,7.2h0.8c0.3,0,0.9-0.1,1.4-0.2c1.9-0.4,4-1,6.1-1.4l0.4-0.1l0.1,0c0.3-1.8,0.5-3.8,0.7-5.5
			c0.1-0.6,0.1-1,0.3-1.7l0.1-0.7c0.3-2,3.1-1.7,3,0.3v0.2c0,0,0,0.1,0,0.1c-0.2,1.6-0.4,2.4-0.6,4.1c-0.4,4-1.1,7-1.3,11v1.9
			c0,1,0.1,2.3,0.2,3.2l0.1,0.7c0.2,1.9-2.7,2.4-3,0.4L26,50.1c-0.1-1.1-0.2-2.3-0.3-3.5v-2c0.1-1.7,0.2-3.2,0.4-4.7
			c-1.8,0.4-3.7,0.9-5.6,1.3c-0.4,0.1-1.2,0.3-2,0.3h-0.8c0,0.1,0,0.2,0,0.4c0,1,0,1.9,0,2.8c0,1,0,1.7,0,2.4v5.3
			C17.8,53.3,17.1,53.9,16.3,53.9z"/>
		<path fill="#FFFFFF" d="M32.6,47.5c0.3-1.6,1.1-3,2.1-3.9c0.6-0.6,1.3-1.3,2.2-1.7c0.7-0.3,1.4-0.6,2.4-0.8c0.2,0,0.4-0.1,0.6-0.1
			c0.2-0.9,0.3-1.6,0.3-2.6c0-0.7-0.1-1.2-0.3-1.7c-1.1,0-2.2,0.3-3.2,0.6c-0.1,0.1-0.2,0.1-0.4,0.3c-0.1,0.6-0.7,1.4-1.7,1.2
			c-0.3,0-0.6-0.2-0.8-0.4c-1.1-1-0.2-2.4,0.2-2.9c1.4-1.4,3.8-1.9,6.1-1.9c2.6,0,3,3.1,3,4.7c0,1.2-0.1,2.3-0.4,3.4l-0.3,1.1
			c-0.2,0.9-0.4,1.6-0.4,2.5c0,1.1,1,2.2,1.8,2.9c0.6,0.5,1.4,0.8,2.2,1.1l0.3,0.1c0.7,0.2,1.1,0.9,1,1.7c-0.1,0.7-1,1.5-2,1.1
			l-0.3-0.1c-1.7-0.6-3.2-1.5-4.3-2.7c-1.2,0.6-2.4,1-3.9,1.3c-0.7,0.2-1.3,0.3-1.7,0.3c-1.2,0.1-2.5-0.4-2.8-1.5
			C32.2,48.6,32.5,47.8,32.6,47.5z M38.1,44.6c-0.9,0.4-1.6,1.3-2.1,2.2c-0.1,0.3-0.3,0.7-0.4,1.1c1.3-0.2,2.7-0.7,3.8-1.2
			c-0.2-0.5-0.3-1-0.3-1.6c0-0.4,0.1-0.7,0.1-1C38.8,44.3,38.5,44.4,38.1,44.6z"/>
		<path fill="#FFFFFF" d="M59.9,41.2c-0.4-0.5-0.9-1.4-1.2-2c0-0.1-0.1-0.1-0.2-0.2l-0.5-0.5c-0.7-0.6-2.3-0.9-3.6-0.6
			c-0.6,0.2-0.6,0.2-0.9,0.7c-0.6,0.9-0.9,1.5-1,2.6c-0.1,1.3-0.3,1.6-0.3,2.6c0.1,1.9,0.6,3.2,1.4,3.7c1,0.6,1.9,0.8,3.3,0.9l1,0.1
			c0.3,0,0.5,0,0.8,0c0.4,0,0.6-0.1,0.8-0.4c0.2-0.2,1.2-1.8,1.4-2.1c0.2-0.5,0.3-0.7,0.4-1.1c0.3-1,1.3-1.1,1.9-0.9
			c0.6,0.2,1.3,1,0.9,1.9l-0.1,0.3c-0.3,0.9-0.5,1.4-1.1,2.4c-1,1.6-2.3,3.1-5.2,2.7l-0.9-0.1c-1.2-0.1-2.6-0.3-3.6-0.8
			c-1.4-0.7-2.6-1.7-3.2-3.4c-0.4-1-0.6-2.3-0.6-3.4c0-1.3,0.2-1.8,0.3-2.9c0.2-1.6,0.7-2.7,1.3-3.8c1-1.8,2.9-2.6,5.4-2.3
			c1.9,0.2,3.4,1,4.4,2.2c0.8,0.8,1.1,1.7,1.5,2.2l0.2,0.3C63.4,40.9,61.1,42.9,59.9,41.2z"/>
		<path fill="#FFFFFF" d="M67.3,26.6c0.8,0,1.5,0.6,1.5,1.5v12.1l0.6-0.6c0.9-0.9,1.9-1.6,2.7-2.2c0.3-0.2,0.6-0.4,0.8-0.6l0.3-0.3
			c1.5-1.3,3.5,1.2,1.8,2.4l-0.4,0.3c-1.1,0.9-2.3,1.7-3.2,2.6c-0.2,0.2-0.4,0.4-0.7,0.7c0.1,0.1,0.1,0.1,0.2,0.1
			c0.7,0.4,1.5,1.1,2,1.5c2.3,1.6,4.3,3.5,6.4,5.4l1,0.9c0.3,0.2,0.5,0.7,0.5,1.1c0,1.2-1.4,2.1-2.5,1.2l-1-0.9
			c-1.6-1.5-3.2-3-4.9-4.3c-0.8-0.6-1.5-1-2.3-1.7c-0.4-0.4-0.9-0.7-1.4-0.9v6.7c0,0.2,0,0.4,0,0.7c-0.1,0.6-0.5,1.8-1.8,1.6
			c-1.7-0.2-1.2-2.3-1.2-2.3V28.1C65.8,27.2,66.5,26.6,67.3,26.6z"/>
		<path fill="#FFFFFF" d="M84,28.6c0.9,0,1.6,0.7,1.6,1.6c0,0.8-0.7,1.5-1.5,1.5c-0.9,0-1.6-0.8-1.6-1.6
			C82.5,29.2,83.2,28.6,84,28.6z M86.2,49.9v0.8c0,0.8-0.7,1.5-1.5,1.5c-0.8,0-1.5-0.6-1.5-1.5v-0.8c0-0.2,0-0.5,0-0.7v-0.4
			c-0.1-0.6-0.1-1.2-0.2-1.6c-0.2-1.1-0.3-2.1-0.4-3.3c-0.1-0.9-0.2-2-0.2-3.2v-4.5c0-0.8,0.7-1.5,1.5-1.5c0.8,0,1.5,0.6,1.5,1.5
			v4.5c0,1,0.1,2,0.2,3c0.1,1.4,0.4,2.6,0.5,4.2c0,0.4,0.1,0.5,0.1,0.7v0.7C86.3,49.5,86.2,49.7,86.2,49.9z"/>
		<path fill="#FFFFFF" d="M97.8,27.5c0.9,0,1.5,0.7,1.5,1.5v2c0,2.8,0.3,5.2,0.5,8l0.3,3.8c0.2,2.7,0.6,4.3,0.8,6.9
			c0,0.4,0.2,1,0.1,1.6c-0.1,0.9-0.8,1.1-1.1,1.1c-0.3,0.1-1.8,0.3-2-1c-0.1-1-0.2-1.6-0.4-3.1l-0.1-0.5c-0.8,0.9-1.6,1.8-2.3,2.5
			c-0.8,0.9-1.6,1.4-2.6,1.5c-1.5,0.1-2.5-0.6-3.2-1.2c-0.9-0.9-0.9-1.9-1.1-3c-0.2-1.2-0.3-2.2-0.3-3.1c0-3.1,0.4-5.8,1.3-8.2
			c0.7-1.9,2-2.5,3.6-2.9c1.6-0.3,2.8,0.4,3.6,1c-0.1-1.3-0.2-2.5-0.2-3.5v-2C96.3,28.2,96.9,27.5,97.8,27.5z M96.1,39.8
			c-0.3-1.5-0.7-2.3-1.5-2.9c-0.4-0.3-0.7-0.4-1.1-0.4c-0.3,0.1-0.7,0.2-1.1,0.4c-0.3,0.3-0.8,2.1-1,3c-0.3,1.3-0.5,3.3-0.5,4.8
			c0,0.8,0.3,3.2,0.5,3.9c0.3,0.2,0.6,0.4,0.8,0.4c0.1,0,0.4-0.3,0.7-0.6c0.9-1,2.5-2.8,3.3-3.7l0.4-0.5c0,0,0.2-0.1,0.2-0.2
			C96.6,42.6,96.3,41.3,96.1,39.8z"/>
		<path fill="#FFFFFF" d="M115,35.4c0.6,0,1,0.2,1.2,0.3c1.8,0.7,0.8,3.4-1,2.8c-0.2-0.1-0.3-0.1-0.3-0.1c-0.2,0-0.5,0-0.7,0H112
			c-1.1,0-2.3,0.3-2.5,0.5c-0.6,0.6-1.1,1-1.2,1.4l-0.2,0.6c0.5,0.2,1.4,0.3,2,0.3c1.6,0.1,3.5,0.3,5,0.5c1,0.2,2.9,0.6,3.2,2.4
			c0.2,1.4-0.5,2.4-1,3.2c-1.1,1.5-2.5,2.2-4.2,3c-2.3,1.1-4.1,2.2-6.7,3.1c-0.4,0.2-1,0.3-1.4,0.4l-0.5,0.1c-1,0.2-1.7-0.6-1.8-1.3
			c-0.1-0.7,0.3-1.5,1.2-1.7l0.5-0.1c1.2-0.2,2.2-0.8,3.4-1.3c1.3-0.6,2.4-1.2,4-2c1.4-0.7,2.5-1.2,3.1-2.1c0.2-0.2,0.3-0.5,0.4-0.7
			c-1.4-0.4-3.4-0.5-5.4-0.7c-1.6-0.2-4.5-0.3-4.7-2.9c-0.1-0.9,0.2-1.5,0.4-2c0.3-0.8,0.9-1.6,1.5-2.2c0.2-0.2,0.3-0.3,0.5-0.5
			c1.1-1,2.9-1.3,4.5-1.3h2.4C114.5,35.4,114.7,35.4,115,35.4z"/>
	</g>
</g>
<g id="Layer_1">
</g>
</svg>
