<?xml version="1.0" encoding="utf-8"?>
<!-- Generator: Adobe Illustrator 18.0.0, SVG Export Plug-In . SVG Version: 6.00 Build 0)  -->
<!DOCTYPE svg PUBLIC "-//W3C//DTD SVG 1.1//EN" "http://www.w3.org/Graphics/SVG/1.1/DTD/svg11.dtd">
<svg version="1.1" xmlns="http://www.w3.org/2000/svg" xmlns:xlink="http://www.w3.org/1999/xlink" x="0px" y="0px"
	 viewBox="0 0 133 101.3" enable-background="new 0 0 133 101.3" xml:space="preserve">
<g id="Fondo">
</g>
<g id="Logo">
</g>
<g id="Layer_4">
	<g>
		<rect x="0" y="-0.1" fill="#386DB4" width="133" height="101.5"/>
		<path fill="#FFFFFF" d="M66.5,65.3c-6.2,0-11.3,5.1-11.3,11.3s5.1,11.3,11.3,11.3c6.2,0,11.3-5.1,11.3-11.3S72.8,65.3,66.5,65.3
			 M69.6,76.8l-5.4,4.3c-0.1,0.1-0.2,0.1-0.4,0.1c-0.2,0-0.3-0.1-0.4-0.2c-0.2-0.2-0.2-0.6,0.1-0.8l4.8-3.9l-4.8-3.5
			c-0.3-0.2-0.3-0.5-0.1-0.8c0.2-0.3,0.5-0.3,0.8-0.1l5.4,4c0.1,0.1,0.2,0.3,0.2,0.4C69.8,76.5,69.7,76.7,69.6,76.8"/>
	</g>
	<g>
		<g>
			<polygon fill-rule="evenodd" clip-rule="evenodd" fill="#FFFFFF" points="18.4,38.5 32.2,38.5 32.1,39.7 18.4,39.7 			"/>
			<polygon fill-rule="evenodd" clip-rule="evenodd" fill="#FFFFFF" points="27.6,24.1 28,24.4 28.4,24.8 28.8,25.1 29.2,25.3 
				29.6,25.6 30.1,25.9 30.5,26.1 31,26.3 31.5,26.5 32,26.6 32.5,26.8 33,26.9 33.3,26.9 33.5,27 33.8,27 34.1,27 34.3,27.1 
				34.6,27.1 34.9,27.1 35.2,27.1 35.4,27.1 35.7,27.1 36,27.1 36.2,27 36.5,27 36.8,27 37.1,26.9 37.3,26.9 37.6,26.8 37.8,26.8 
				38.1,26.7 38.4,26.6 38.9,26.5 39.3,26.3 39.8,26.1 40.3,25.8 40.7,25.6 41.2,25.3 41.6,25 42,24.7 42.4,24.4 42.7,24 43.7,24.6 
				43.5,24.8 43.3,25 43.1,25.1 42.8,25.3 42.6,25.5 42.4,25.7 42.2,25.9 41.9,26 41.7,26.2 41.4,26.3 41.2,26.5 40.9,26.6 
				40.7,26.8 40.4,26.9 40.1,27 39.9,27.1 39.6,27.3 39.3,27.4 39,27.5 38.8,27.6 38.5,27.6 38.2,27.7 37.9,27.8 37.6,27.9 
				37.3,27.9 37,28 36.7,28 36.4,28 36.1,28.1 35.8,28.1 35.5,28.1 35.2,28.1 34.8,28.1 34.5,28.1 34.2,28.1 33.9,28 33.6,28 
				33.3,28 33,27.9 32.7,27.9 32.4,27.8 32.1,27.7 31.8,27.6 31.5,27.6 31.2,27.5 31,27.4 30.7,27.3 30.4,27.1 30.1,27 29.9,26.9 
				29.6,26.8 29.3,26.6 29.1,26.5 28.8,26.3 28.6,26.2 28.3,26 28.1,25.8 27.9,25.7 27.7,25.5 27.4,25.3 27.2,25.1 27,24.9 
				26.8,24.7 26.6,24.5 			"/>
			<polygon fill-rule="evenodd" clip-rule="evenodd" fill="#FFFFFF" points="29.3,26.6 28.9,26.8 28.6,27 28.2,27.2 27.9,27.4 
				27.5,27.7 27.2,28 26.9,28.2 26.6,28.5 26.3,28.8 26,29.1 25.7,29.5 25.4,29.8 25.1,30.1 24.8,30.5 24.6,30.8 24.3,31.2 
				24.1,31.6 23.9,32 23.7,32.4 23.5,32.7 23.3,33.2 23.1,33.6 22.9,34 22.8,34.4 22.7,34.8 22.6,35.3 22.5,35.7 22.4,36.1 
				22.3,36.6 22.3,37 22.2,37.5 22.2,37.9 22.2,38.1 22.2,38.3 22.2,38.4 22.2,38.6 23.3,38.5 23.3,38.4 23.3,38.2 23.3,38.1 
				23.3,37.9 23.3,37.5 23.3,37 23.4,36.6 23.4,36.2 23.5,35.7 23.6,35.3 23.7,34.9 23.9,34.5 24,34 24.2,33.6 24.4,33.2 24.6,32.8 
				24.8,32.5 25,32.1 25.2,31.7 25.5,31.4 25.7,31 26,30.7 26.3,30.3 26.6,30 26.9,29.7 27.2,29.4 27.5,29.1 27.8,28.8 28.2,28.6 
				28.5,28.3 28.8,28.1 29.2,27.9 29.5,27.7 29.9,27.5 30.3,27.3 30.6,27.1 			"/>
			<rect x="34.6" y="21.7" fill-rule="evenodd" clip-rule="evenodd" fill="#FFFFFF" width="1.2" height="10.1"/>
			<rect x="19.3" y="31.1" fill-rule="evenodd" clip-rule="evenodd" fill="#FFFFFF" width="31.2" height="1.2"/>
			<polygon fill-rule="evenodd" clip-rule="evenodd" fill="#FFFFFF" points="41.1,26.6 41.4,26.8 41.7,27 42.1,27.2 42.4,27.4 
				42.8,27.7 43.1,28 43.4,28.2 43.7,28.5 44.1,28.8 44.4,29.1 44.7,29.5 44.9,29.8 45.2,30.1 45.5,30.5 45.7,30.8 46,31.2 
				46.2,31.6 46.4,32 46.6,32.4 46.8,32.7 47,33.2 47.2,33.6 47.4,34 47.5,34.4 47.6,34.8 47.8,35.3 47.8,35.7 47.9,36.1 48,36.6 
				48,37 48.1,37.5 48.1,37.9 48.1,38.1 48.1,38.2 48.1,38.3 48.1,38.4 47,38.5 47,38.4 47,38.2 47,38.1 47,37.9 47,37.5 47,37 
				46.9,36.6 46.9,36.2 46.8,35.7 46.7,35.3 46.6,34.9 46.4,34.5 46.3,34 46.1,33.6 45.9,33.2 45.7,32.8 45.5,32.5 45.3,32.1 
				45.1,31.7 44.8,31.4 44.6,31 44.3,30.7 44,30.3 43.7,30 43.4,29.7 43.1,29.4 42.8,29.1 42.5,28.8 42.2,28.6 41.8,28.3 41.5,28.1 
				41.1,27.9 40.8,27.7 40.4,27.5 40,27.3 39.7,27.1 			"/>
			<polygon fill-rule="evenodd" clip-rule="evenodd" fill="#FFFFFF" points="60.7,39.2 47,39.2 47,38 60.7,38 			"/>
			<polygon fill-rule="evenodd" clip-rule="evenodd" fill="#FFFFFF" points="51.5,53.6 51.2,53.2 50.8,52.9 50.4,52.6 49.9,52.3 
				49.5,52.1 49.1,51.8 48.6,51.6 48.1,51.4 47.7,51.2 47.2,51 46.7,50.9 46.1,50.8 45.6,50.7 45.1,50.6 44.6,50.6 44,50.6 
				43.7,50.6 43.4,50.6 43.2,50.6 42.9,50.6 42.4,50.7 41.8,50.8 41.3,50.9 40.8,51 40.3,51.2 39.8,51.4 39.3,51.6 38.9,51.8 
				38.4,52.1 38,52.4 37.6,52.7 37.2,53 36.8,53.3 36.4,53.6 35.5,53.1 35.7,52.9 35.9,52.7 36.1,52.5 36.3,52.3 36.5,52.1 36.8,52 
				37,51.8 37.2,51.6 37.5,51.5 37.7,51.3 38,51.2 38.2,51 38.5,50.9 38.7,50.8 39,50.6 39.3,50.5 39.5,50.4 39.8,50.3 40.1,50.2 
				40.4,50.1 40.7,50 41,49.9 41.3,49.9 41.6,49.8 41.9,49.8 42.1,49.7 42.5,49.7 42.8,49.6 43.1,49.6 43.4,49.6 43.7,49.6 44,49.6 
				44.3,49.6 44.6,49.6 44.9,49.6 45.3,49.6 45.6,49.7 45.9,49.7 46.2,49.8 46.5,49.8 46.8,49.9 47.1,49.9 47.3,50 47.6,50.1 
				47.9,50.2 48.2,50.3 48.5,50.4 48.8,50.5 49,50.6 49.3,50.8 49.5,50.9 49.8,51 50.1,51.2 50.3,51.3 50.6,51.5 50.8,51.7 51,51.8 
				51.3,52 51.5,52.2 51.7,52.4 51.9,52.6 52.1,52.8 52.4,52.9 52.6,53.2 			"/>
			<polygon fill-rule="evenodd" clip-rule="evenodd" fill="#FFFFFF" points="49.9,51.1 50.3,50.9 50.6,50.7 50.9,50.5 51.3,50.2 
				51.6,50 51.9,49.7 52.3,49.4 52.6,49.1 52.9,48.8 53.2,48.5 53.5,48.2 53.8,47.9 54.1,47.5 54.3,47.2 54.6,46.8 54.8,46.5 
				55.1,46.1 55.3,45.7 55.5,45.3 55.7,44.9 55.9,44.5 56.1,44.1 56.2,43.7 56.4,43.3 56.5,42.8 56.6,42.4 56.7,42 56.8,41.5 
				56.8,41.1 56.9,40.7 56.9,40.2 56.9,39.7 56.9,39.6 56.9,39.4 56.9,39.2 56.9,39.1 55.9,39.2 55.9,39.3 55.9,39.5 55.9,39.6 
				55.9,39.7 55.9,40.2 55.8,40.6 55.8,41.1 55.7,41.5 55.6,41.9 55.5,42.4 55.4,42.8 55.3,43.2 55.1,43.6 55,44 54.8,44.4 
				54.6,44.8 54.4,45.2 54.2,45.6 53.9,45.9 53.7,46.3 53.4,46.7 53.1,47 52.9,47.3 52.6,47.6 52.3,48 52,48.3 51.7,48.5 51.3,48.8 
				51,49.1 50.7,49.3 50.3,49.6 50,49.8 49.6,50 49.3,50.2 48.9,50.4 48.5,50.5 			"/>
			<rect x="43.3" y="45.9" fill-rule="evenodd" clip-rule="evenodd" fill="#FFFFFF" width="1.2" height="10.1"/>
			<rect x="28.6" y="45.4" fill-rule="evenodd" clip-rule="evenodd" fill="#FFFFFF" width="31.2" height="1.2"/>
			<polygon fill-rule="evenodd" clip-rule="evenodd" fill="#FFFFFF" points="38.1,51.1 37.7,50.9 37.4,50.7 37,50.5 36.7,50.2 
				36.4,50 36,49.7 35.7,49.4 35.4,49.1 35.1,48.8 34.8,48.5 34.5,48.2 34.2,47.9 33.9,47.5 33.7,47.2 33.4,46.8 33.2,46.5 
				32.9,46.1 32.7,45.7 32.5,45.3 32.3,44.9 32.1,44.5 31.9,44.1 31.8,43.7 31.6,43.3 31.5,42.8 31.4,42.4 31.3,42 31.2,41.5 
				31.2,41.1 31.1,40.7 31.1,40.2 31.1,39.7 31.1,39.6 31.1,39.5 31.1,39.4 31.1,39.2 32.1,39.2 32.1,39.3 32.1,39.5 32.1,39.6 
				32.1,39.7 32.2,40.2 32.2,40.6 32.2,41.1 32.3,41.5 32.4,41.9 32.5,42.4 32.6,42.8 32.7,43.2 32.9,43.6 33,44 33.2,44.4 
				33.4,44.8 33.6,45.2 33.8,45.6 34.1,45.9 34.3,46.3 34.6,46.7 34.9,47 35.1,47.3 35.4,47.6 35.7,48 36,48.3 36.3,48.5 36.7,48.8 
				37,49.1 37.3,49.3 37.7,49.6 38,49.8 38.4,50 38.7,50.2 39.1,50.4 39.5,50.5 			"/>
			<polygon fill-rule="evenodd" clip-rule="evenodd" fill="#FFFFFF" points="54.1,38.1 54,37.2 53.8,36.2 53.6,35.3 53.4,34.3 
				53.1,33.5 52.8,32.6 52.5,31.7 52.1,30.9 51.7,30 51.3,29.2 50.8,28.5 50.3,27.7 49.7,27 49.2,26.3 48.6,25.6 47.9,25 47.3,24.3 
				46.6,23.8 45.9,23.2 45.2,22.7 44.4,22.2 43.7,21.8 42.9,21.4 42.1,21 41.3,20.7 40.4,20.4 39.5,20.1 38.7,19.9 37.8,19.8 
				36.9,19.7 36,19.6 35,19.6 34.1,19.6 33.1,19.7 32.1,19.8 31.2,20 30.3,20.2 29.4,20.5 28.5,20.8 27.6,21.2 26.8,21.6 25.9,22 
				25.1,22.5 24.4,23.1 23.6,23.6 22.9,24.2 22.2,24.9 21.5,25.6 20.9,26.3 20.3,27 19.7,27.8 19.2,28.6 18.7,29.4 18.3,30.3 
				17.8,31.1 17.5,32.1 17.1,33 16.8,33.9 16.5,34.9 16.3,35.9 16.2,36.9 16,37.9 16,39 15.9,40 16,40.6 16,41.2 16,41.7 16.1,42.3 
				16.1,42.9 16.2,43.5 16.3,44.1 16.5,44.7 16.6,45.3 16.7,45.9 16.9,46.5 17.1,47.1 17.3,47.7 17.5,48.3 17.7,48.9 17.9,49.4 
				18.1,50 18.4,50.6 18.7,51.2 19,51.8 19.3,52.3 19.6,52.9 19.9,53.4 20.2,54 20.6,54.5 20.9,55.1 21.3,55.6 21.6,56.1 22,56.6 
				22.4,57.1 22.9,57.6 23.3,58.1 27.3,58.1 26.9,57.7 26.5,57.3 26,56.8 25.7,56.4 25.3,56 25,55.7 24.8,55.5 24.8,55.4 24.4,55 
				24.1,54.6 23.7,54.1 23.4,53.7 23.1,53.3 22.8,52.8 22.5,52.3 22.2,51.9 21.9,51.4 21.6,50.9 21.4,50.4 21.1,49.9 20.9,49.4 
				20.6,49 20.4,48.5 20.2,47.9 20,47.4 19.9,46.9 19.7,46.4 19.5,45.9 19.4,45.4 19.3,44.9 19.1,44.4 19,43.9 18.9,43.4 18.8,42.9 
				18.8,42.4 18.7,41.8 18.7,41.3 18.6,40.9 18.6,40.4 18.6,39.9 18.6,38.9 18.7,38 18.8,37.2 18.9,36.3 19.1,35.5 19.3,34.6 
				19.6,33.8 19.9,33 20.2,32.2 20.6,31.5 21,30.7 21.4,30 21.9,29.3 22.4,28.7 22.9,28 23.4,27.4 24,26.8 24.6,26.3 25.2,25.8 
				25.8,25.3 26.5,24.8 27.2,24.4 27.9,24 28.7,23.6 29.4,23.3 30.2,23 30.9,22.8 31.7,22.6 32.5,22.5 33.4,22.3 34.2,22.3 35,22.3 
				35.8,22.3 36.6,22.3 37.4,22.4 38.2,22.6 38.9,22.7 39.7,23 40.4,23.2 41.1,23.5 41.8,23.8 42.5,24.1 43.1,24.5 43.8,24.9 
				44.4,25.4 45,25.8 45.6,26.3 46.1,26.9 46.7,27.4 47.2,28 47.7,28.6 48.1,29.2 48.6,29.8 49,30.5 49.4,31.2 49.7,31.9 50,32.6 
				50.3,33.3 50.6,34.1 50.8,34.9 51,35.7 51.2,36.5 51.3,37.3 51.4,38.1 			"/>
			<polygon fill-rule="evenodd" clip-rule="evenodd" fill="#FFFFFF" points="25.1,39.5 25.2,40.5 25.3,41.5 25.5,42.4 25.7,43.3 
				26,44.2 26.3,45.1 26.7,46 27,46.8 27.5,47.6 27.9,48.4 28.4,49.2 28.9,50 29.4,50.7 30,51.4 30.6,52.1 31.2,52.7 31.9,53.3 
				32.5,53.9 33.2,54.4 34,55 34.7,55.4 35.5,55.9 36.3,56.3 37.1,56.7 37.9,57 38.7,57.3 39.6,57.5 40.5,57.7 41.4,57.9 42.3,58 
				43.2,58.1 44.1,58.1 45.1,58.1 46.1,58 47,57.9 47.9,57.7 48.9,57.5 49.8,57.2 50.7,56.9 51.5,56.5 52.4,56.1 53.2,55.6 54,55.1 
				54.8,54.6 55.5,54.1 56.3,53.4 56.9,52.8 57.6,52.1 58.2,51.4 58.8,50.7 59.4,49.9 59.9,49.1 60.4,48.3 60.9,47.4 61.3,46.5 
				61.7,45.6 62,44.7 62.3,43.7 62.6,42.8 62.8,41.8 63,40.8 63.1,39.8 63.2,38.7 63.2,37.7 63.2,37.1 63.2,36.5 63.1,35.9 
				63.1,35.3 63,34.7 62.9,34.2 62.8,33.6 62.7,33 62.6,32.4 62.4,31.8 62.3,31.2 62.1,30.6 61.9,30 61.7,29.4 61.5,28.8 61.2,28.2 
				61,27.6 60.7,27.1 60.5,26.5 60.2,25.9 59.9,25.4 59.6,24.8 59.3,24.2 58.9,23.7 58.6,23.1 58.2,22.6 57.9,22.1 57.5,21.6 
				57.1,21.1 56.7,20.5 56.3,20.1 55.9,19.6 51.8,19.6 52.3,20 52.7,20.4 53.1,20.9 53.5,21.3 53.8,21.7 54.1,22 54.3,22.2 
				54.4,22.3 54.7,22.7 55.1,23.1 55.4,23.5 55.8,24 56.1,24.4 56.4,24.9 56.7,25.3 57,25.8 57.3,26.3 57.5,26.8 57.8,27.2 58,27.7 
				58.3,28.2 58.5,28.7 58.7,29.2 58.9,29.7 59.1,30.2 59.3,30.7 59.5,31.2 59.6,31.8 59.8,32.3 59.9,32.8 60,33.3 60.1,33.8 
				60.2,34.3 60.3,34.8 60.4,35.3 60.4,35.8 60.5,36.3 60.5,36.8 60.5,37.3 60.5,37.8 60.5,38.7 60.5,39.6 60.4,40.5 60.2,41.4 
				60,42.2 59.8,43.1 59.5,43.9 59.3,44.7 58.9,45.4 58.6,46.2 58.2,46.9 57.7,47.7 57.3,48.3 56.8,49 56.3,49.6 55.7,50.3 
				55.2,50.8 54.6,51.4 53.9,51.9 53.3,52.4 52.6,52.9 51.9,53.3 51.2,53.7 50.5,54 49.8,54.3 49,54.6 48.2,54.9 47.4,55 46.6,55.2 
				45.8,55.3 45,55.4 44.1,55.4 43.3,55.4 42.5,55.3 41.7,55.2 41,55.1 40.2,54.9 39.5,54.7 38.8,54.5 38.1,54.2 37.4,53.9 
				36.7,53.5 36,53.1 35.4,52.7 34.8,52.3 34.2,51.8 33.6,51.3 33,50.8 32.5,50.3 32,49.7 31.5,49.1 31,48.5 30.6,47.8 30.2,47.2 
				29.8,46.5 29.4,45.8 29.1,45.1 28.8,44.3 28.6,43.6 28.3,42.8 28.1,42 28,41.2 27.8,40.4 27.7,39.5 			"/>
			<polygon fill-rule="evenodd" clip-rule="evenodd" fill="#FFFFFF" points="35,34.1 35,34 35,33.9 35,33.8 35,33.7 35.1,33.6 
				35.1,33.5 35.2,33.5 35.2,33.4 35.3,33.3 35.4,33.3 35.5,33.2 35.6,33.2 35.7,33.2 35.7,33.1 35.9,33.1 35.9,33.1 36,33.1 
				36.1,33.1 36.2,33.2 36.3,33.2 36.4,33.2 36.5,33.3 36.6,33.3 36.6,33.4 36.7,33.5 36.8,33.5 36.8,33.6 36.9,33.7 36.9,33.8 
				36.9,33.9 36.9,34 36.9,34.1 36.9,34.2 36.9,34.3 36.9,34.4 36.9,34.5 36.8,34.6 36.8,34.7 36.7,34.7 36.6,34.8 36.6,34.9 
				36.5,34.9 36.4,35 36.3,35 36.2,35 36.1,35.1 36,35.1 35.9,35.1 35.9,35.1 35.7,35.1 35.7,35 35.6,35 35.5,35 35.4,34.9 
				35.3,34.9 35.2,34.8 35.2,34.7 35.1,34.7 35.1,34.6 35,34.5 35,34.4 35,34.3 35,34.2 			"/>
			<polygon fill-rule="evenodd" clip-rule="evenodd" fill="#FFFFFF" points="36,40 34.5,44.2 34.5,44.3 34.4,44.3 34.3,44.3 
				34.2,44.4 34.1,44.4 34.1,44.3 34,44.3 33.9,44.3 33.9,44.2 33.8,44.2 33.8,44.1 33.8,44.1 35.1,39.2 34.6,36.4 33.6,39.5 
				33.5,39.5 33.5,39.6 33.4,39.6 33.3,39.6 33.2,39.6 33.2,39.6 33.1,39.5 33.1,39.5 33,39.5 33,39.4 33,39.4 33,39.3 34.3,35.2 
				36,35.2 37.6,35.2 39.3,40.1 39.3,40.2 39.3,40.3 39.3,40.4 39.3,40.4 39.2,40.4 39.2,40.4 39.1,40.4 39,40.4 38.9,40.3 
				38.9,40.3 37.3,36.4 36.8,39.2 38.1,44.1 38.1,44.1 38.1,44.2 38,44.2 38,44.3 37.9,44.3 37.9,44.3 37.8,44.4 37.7,44.4 
				37.6,44.3 37.5,44.3 37.4,44.3 37.4,44.2 			"/>
			<polygon fill-rule="evenodd" clip-rule="evenodd" fill="#FFFFFF" points="42.7,34.3 42.7,34.2 42.7,34.2 42.8,34.1 42.8,34 
				42.8,33.9 42.9,33.8 42.9,33.8 43,33.7 43.1,33.7 43.1,33.6 43.2,33.6 43.3,33.5 43.3,33.5 43.4,33.5 43.5,33.5 43.6,33.5 
				43.7,33.5 43.8,33.5 43.9,33.5 43.9,33.5 44,33.6 44.1,33.6 44.2,33.7 44.2,33.7 44.3,33.8 44.3,33.8 44.4,33.9 44.4,34 
				44.4,34.1 44.5,34.2 44.5,34.2 44.5,34.3 44.5,34.4 44.5,34.5 44.4,34.6 44.4,34.7 44.4,34.7 44.3,34.8 44.3,34.9 44.2,35 
				44.2,35 44.1,35.1 44,35.1 43.9,35.1 43.9,35.2 43.8,35.2 43.7,35.2 43.6,35.2 43.5,35.2 43.4,35.2 43.3,35.2 43.3,35.1 
				43.2,35.1 43.1,35.1 43.1,35 43,35 42.9,34.9 42.9,34.8 42.8,34.7 42.8,34.7 42.8,34.6 42.7,34.5 42.7,34.4 			"/>
			<polygon fill-rule="evenodd" clip-rule="evenodd" fill="#FFFFFF" points="43.6,35.3 44.8,35.3 46.2,39 46.2,39.1 46.2,39.2 
				46.2,39.2 46.2,39.3 46.1,39.3 46.1,39.3 46,39.3 45.9,39.2 45.9,39.2 45.8,39.2 44.7,36.6 44.6,36.7 44.6,36.9 44.6,37.2 
				44.5,37.5 44.4,37.8 44.4,38.1 44.4,38.3 44.4,38.4 44.4,38.5 44.4,38.6 44.6,39 44.7,39.5 44.8,39.9 44.9,40.4 45.1,40.9 
				45.1,41.4 45.2,41.8 45.3,42.3 45.4,43.1 45.4,43.7 45.5,44.2 45.5,44.4 43.6,44.2 41.7,44.4 41.7,44.2 41.8,43.7 41.8,43.1 
				41.9,42.3 42,41.8 42.1,41.4 42.2,40.9 42.3,40.4 42.4,39.9 42.5,39.5 42.6,39 42.8,38.6 42.8,38.5 42.8,38.4 42.8,38.3 
				42.8,38.1 42.8,37.8 42.7,37.5 42.7,37.2 42.6,36.9 42.6,36.7 42.6,36.6 40.8,40.3 40.8,40.4 40.7,40.4 40.7,40.5 40.6,40.5 
				40.5,40.5 40.5,40.4 40.5,40.4 40.4,40.4 40.4,40.3 40.4,40.2 42.4,35.3 			"/>
			<polygon fill-rule="evenodd" clip-rule="evenodd" fill="#FFFFFF" points="39.2,38.5 39.2,38.4 39.3,38.3 39.3,38.3 39.3,38.2 
				39.4,38.1 39.4,38 39.5,37.9 39.7,37.8 39.7,37.8 39.8,37.8 39.9,37.8 39.9,37.8 40,37.8 40,37.8 40.1,37.8 40.2,37.8 40.3,37.9 
				40.4,38 40.5,38.1 40.5,38.2 40.5,38.3 40.6,38.3 40.6,38.4 40.6,38.5 40.6,38.5 40.6,38.6 40.5,38.7 40.5,38.7 40.5,38.8 
				40.4,38.9 40.3,39 40.2,39.1 40.1,39.1 40,39.1 40,39.1 39.9,39.1 39.9,39.1 39.8,39.1 39.7,39.1 39.7,39.1 39.5,39 39.4,38.9 
				39.4,38.8 39.3,38.7 39.3,38.7 39.3,38.6 39.2,38.5 			"/>
			<polygon fill-rule="evenodd" clip-rule="evenodd" fill="#FFFFFF" points="39.5,42.8 39.4,44.3 39.3,44.3 39.3,44.3 39.2,44.3 
				39.2,44.4 39.1,44.4 39.1,44.3 39,44.3 39,44.3 39,44.3 38.9,44.2 38.9,44.2 38.9,44.2 39,42.8 38.7,42.8 39.1,41.2 38.8,40 
				38.6,39.2 39.9,39.2 41.2,39.2 41,40 40.6,41.2 41,42.8 40.7,42.8 40.8,44.2 40.8,44.2 40.8,44.2 40.8,44.3 40.8,44.3 40.7,44.3 
				40.7,44.3 40.6,44.4 40.6,44.4 40.5,44.3 40.5,44.3 40.4,44.3 40.4,44.3 40.2,42.8 			"/>
		</g>
		<g>
			<path fill-rule="evenodd" clip-rule="evenodd" fill="#FFFFFF" d="M70.6,19.6L70.6,19.6l0.2,0l0.2,0l0.2,0l0.2,0.1l0.2,0.1
				l0.2,0.1L72,20l0.2,0.1l0.2,0.1l0.2,0.1l0.1,0.2l0.1,0.2l0.1,0.2L73,21l0.1,0.2l0.1,0.2l0.1,0.2l0.1,0.2l0.1,0.3l0.1,0.2l0,0.3
				l0,0.3l0,0.3v0.3l0,0.4l0,0.4l0,0.2l0,0.2l0,0.2l0,0.2l-0.1,0.2l-0.1,0.2l-0.1,0.2l-0.1,0.1l-0.1,0.2L73,26l-0.1,0.1l-0.1,0.1
				l-0.1,0.1l-0.1,0.1l-0.1,0.1l-0.1,0.1l-0.1,0.1L72.1,27L72,27.1l-0.1,0.1l-0.1,0.1l-0.1,0.1l-0.2,0l-0.1,0l-0.2,0l-0.2,0l-0.2,0
				h-0.2v-0.9l0.2,0l0.2,0l0.1,0l0.1,0l0.1,0l0.1-0.1l0.2-0.1l0.2-0.1L72,26l0.2-0.2l0.1-0.1l0.1-0.1l0.1-0.1l0.1-0.1l0.1-0.3
				l0.1-0.3l0.1-0.3l0.1-0.3l0-0.3l0-0.4l0-0.2l0-0.2l0-0.2l0-0.2l0-0.2l-0.1-0.2L72.5,22l-0.1-0.2l-0.1-0.1l-0.1-0.1l-0.1-0.1
				l-0.1-0.1L72,21.1L71.9,21l-0.1-0.1l-0.1-0.1l-0.1-0.1l-0.1-0.1l-0.1-0.1l-0.1-0.1l-0.1,0l-0.1,0l-0.1,0h-0.1h0V19.6z M67.7,23.6
				l0-0.2v-0.2l0-0.2l0-0.2l0-0.2l0-0.2l0-0.2l0-0.2l0.1-0.2l0.1-0.2l0.1-0.2l0.1-0.2l0.1-0.2l0.1-0.1l0.1-0.1l0.1-0.1l0.1-0.1
				l0.1-0.1l0.1-0.1l0.1-0.1l0.1-0.1l0.1-0.1l0.1-0.1l0.1-0.1l0.1-0.1l0.1-0.1l0.1,0l0.1,0l0.2,0l0.1,0l0.2,0h0.1v0.9l-0.2,0l-0.2,0
				l-0.1,0l-0.1,0l-0.1,0l-0.1,0l-0.2,0.1l-0.2,0.1l-0.2,0.2l-0.2,0.2L69,21.3L69,21.5l-0.1,0.1l-0.1,0.1l0,0.1l0,0.1l-0.1,0.1
				l0,0.1l-0.1,0.3l0,0.3l0,0.4v0.4V24l0,0.3l0,0.3l0.1,0.3l0.1,0.3l0.1,0.2l0.1,0.1l0.1,0.1l0.1,0.1l0.1,0.1l0.2,0.2l0.2,0.2
				l0.2,0.1l0.2,0.1l0.2,0.1l0.2,0.1l0.2,0l0.2,0l0,0v0.9l0,0h-0.2l-0.2,0l-0.2,0l-0.1,0l-0.2,0l-0.1,0l-0.1-0.1l-0.1-0.1l-0.1-0.1
				L69.1,27L69,26.9l-0.1-0.1l-0.1-0.1l-0.1-0.1l-0.1-0.1l-0.1-0.1l-0.1-0.1L68.2,26l-0.1-0.1l-0.1-0.1L68,25.5L68,25.4l-0.1-0.2
				l0-0.2l-0.1-0.2l0-0.2l0-0.2l0-0.2l0-0.4L67.7,23.6z"/>
			<polygon fill-rule="evenodd" clip-rule="evenodd" fill="#FFFFFF" points="74.5,27.3 74.5,21.8 75.2,21.8 75.2,22.7 75.3,22.4 
				75.5,22.2 75.6,22 75.7,21.9 75.8,21.8 75.9,21.7 76.1,21.7 76.2,21.7 76.3,21.7 76.4,21.7 76.5,21.7 76.6,21.8 76.7,21.8 
				76.8,21.9 76.9,21.9 77,22 76.7,22.9 76.6,22.8 76.4,22.7 76.3,22.7 76.2,22.7 76,22.7 75.9,22.7 75.8,22.8 75.7,22.8 75.6,22.9 
				75.5,23 75.5,23.2 75.4,23.3 75.4,23.6 75.3,23.9 75.3,24.2 75.3,24.4 75.3,27.3 			"/>
			<path fill-rule="evenodd" clip-rule="evenodd" fill="#FFFFFF" d="M79.1,28.8L79.1,28.8l0.1,0l0.1,0l0.1,0l0.1,0l0.1,0l0.1-0.1
				l0.1-0.1l0.1-0.1l0.1-0.1l0.1-0.1l0-0.1l0.1-0.1l0-0.1l0-0.1l0-0.1l0-0.2l0-0.3l0-0.3v-0.4l-0.1,0.2L80,26.9L79.9,27l-0.1,0.1
				l-0.2,0.1l-0.2,0.1l-0.2,0l-0.1,0v-0.8l0,0l0.1,0l0.1,0l0.1,0l0.1,0l0.1-0.1l0.1-0.1l0.1-0.1l0.1-0.1l0.1-0.1l0.1-0.1l0-0.2
				l0.1-0.2l0-0.2l0-0.2l0-0.2v-0.3v-0.3l0-0.2l0-0.2l0-0.2l-0.1-0.2l-0.1-0.2l-0.1-0.1L80,23l-0.1-0.1l-0.1-0.1l-0.1-0.1l-0.1-0.1
				l-0.1-0.1l-0.1,0l-0.1,0h-0.1v-0.8l0.1,0l0.2,0l0.2,0.1l0.2,0.1L80,22l0.2,0.1l0.1,0.2l0.1,0.2v-0.7h0.7v4.8v0.3l0,0.3l0,0.3
				l0,0.2l0,0.2l0,0.2l0,0.2l-0.1,0.1l0,0.1l-0.1,0.1l-0.1,0.1l-0.1,0.1L80.5,29l-0.1,0.1l-0.1,0.1l-0.1,0.1l-0.1,0.1L80,29.4
				l-0.1,0.1l-0.1,0l-0.1,0l-0.1,0l-0.2,0h-0.1V28.8z M77.3,27.8l0.7,0.1l0,0.1l0,0.1l0,0.1l0,0.1l0,0.1l0.1,0.1l0.1,0.1l0.1,0.1
				l0.1,0l0.1,0l0.1,0l0.1,0l0.1,0l0.1,0l0.1,0H79h0.1v0.8h-0.1l-0.2,0l-0.2,0l-0.2,0l-0.2,0l-0.2-0.1L78,29.3l-0.1-0.1l-0.1-0.1
				L77.6,29l-0.1-0.1l-0.1-0.1l-0.1-0.2l0-0.2l0-0.2l0-0.2V27.8L77.3,27.8z M79.1,27.3L79.1,27.3l-0.3,0l-0.2,0l-0.2-0.1l-0.2-0.1
				L78.2,27L78,26.9l-0.1-0.1l-0.1-0.2l-0.1-0.2l-0.1-0.2L77.4,26l-0.1-0.2l-0.1-0.3l-0.1-0.3l0-0.3l0-0.3l0-0.2l0-0.2l0-0.2l0-0.2
				l0-0.2l0.1-0.2l0.1-0.2l0.1-0.2l0.1-0.2l0.1-0.1l0.1-0.1l0.1-0.1l0.1-0.1l0.1-0.1l0.1-0.1l0.1-0.1l0.1-0.1l0.1-0.1l0.1-0.1l0.1,0
				l0.1,0l0.1,0l0.1,0h0.1h0.1v0.8l0,0l-0.1,0l-0.1,0l-0.1,0l-0.1,0.1l-0.1,0.1l-0.1,0.1l-0.1,0.1L78.3,23l-0.1,0.1l-0.1,0.1
				L78,23.4L78,23.6l0,0.2l0,0.2l0,0.2l0,0.2l0,0.3l0,0.2l0,0.2l0,0.2l0.1,0.2l0.1,0.2l0.1,0.2l0.1,0.1l0.1,0.1l0.1,0.1l0.1,0.1
				l0.1,0.1l0.1,0l0.1,0l0.1,0l0.1,0V27.3z"/>
			<path fill-rule="evenodd" clip-rule="evenodd" fill="#FFFFFF" d="M85.2,26.6L85,26.8L84.8,27l-0.2,0.1l-0.2,0.1l-0.2,0.1L84,27.4
				h0v-0.7l0,0l0.1,0l0.1,0l0.1,0l0.1-0.1l0.1,0l0.1-0.1l0.1-0.1l0.1-0.1l0.1-0.1l0.1-0.1l0-0.1l0.1-0.1l0-0.1l0-0.1l0-0.1l0-0.1
				l0-0.1l0-0.3l0-0.3v-0.3l-0.2,0.1l-0.3,0.1l-0.3,0.1L84,24.9v-0.8l0.2,0l0.4-0.1l0.3-0.1l0.3-0.1v-0.2v-0.1l0-0.1l0-0.1l0-0.1
				l0-0.1l0-0.1l0-0.1l0-0.1l-0.1-0.1l-0.1-0.1l-0.1-0.1l-0.1,0l-0.1,0l-0.1,0l-0.1,0l-0.1,0l-0.1,0v-0.8h0.2h0.2l0.2,0l0.2,0l0.1,0
				l0.1,0l0.1,0l0.1,0l0.1,0.1l0.1,0.1l0.1,0.1l0.1,0.1l0.1,0.1l0.1,0.1l0,0.1l0,0.1l0,0.1l0,0.2l0,0.3l0,0.3v0.4V25v0.6l0,0.5
				l0,0.4l0,0.2l0,0.2l0,0.2l0.1,0.2l0.1,0.2h-0.8l-0.1-0.2l0-0.2l0-0.2L85.2,26.6z M84,27.4l-0.2,0l-0.2,0h-0.2l-0.2,0l-0.2,0
				l-0.1,0l-0.1-0.1l-0.1-0.1l-0.1-0.1L82.4,27l-0.1-0.1l-0.1-0.1l-0.1-0.1l-0.1-0.1l0-0.1l0-0.2l0-0.2l0-0.2l0-0.2l0-0.2l0-0.1
				l0-0.1l0-0.1l0-0.1l0.1-0.2l0.1-0.2l0.1-0.1l0.1-0.1l0.1-0.1l0.1-0.1l0.1-0.1l0.1,0l0.1,0l0.1-0.1l0.3-0.1l0.3-0.1l0.2,0v0.8
				l-0.1,0l-0.2,0L83.5,25l-0.2,0l-0.1,0.1l-0.1,0.1L83,25.2L83,25.3l-0.1,0.1l-0.1,0.1l0,0.1l0,0.1l0,0.1v0.1l0,0.1l0,0.1l0,0.1
				l0,0.1l0,0.1l0.1,0.1l0.1,0.1l0.1,0.1l0.1,0.1l0.1,0l0.1,0l0.1,0l0.1,0l0.1,0l0.1,0l0.1,0h0.1l0,0V27.4L84,27.4z M84,22.5
				L84,22.5h-0.2l-0.1,0l-0.1,0l-0.1,0l-0.1,0l-0.1,0l-0.1,0l-0.1,0.1l-0.1,0.1l-0.1,0.1L83,23l0,0.1l0,0.1l0,0.1l0,0.1l-0.7-0.1
				l0-0.2l0.1-0.2l0.1-0.2l0.1-0.2l0.1-0.2l0.1-0.1l0.1-0.1l0.1-0.1l0.1-0.1l0.1-0.1l0.2-0.1l0.2-0.1l0.2,0l0.2,0l0.2,0h0V22.5z"/>
			<polygon fill-rule="evenodd" clip-rule="evenodd" fill="#FFFFFF" points="87.1,27.3 87.1,21.8 87.8,21.8 87.8,22.6 87.8,22.5 
				87.9,22.4 88,22.3 88,22.2 88.1,22.1 88.2,22.1 88.3,22 88.4,21.9 88.5,21.9 88.6,21.8 88.6,21.8 88.7,21.8 88.8,21.7 89,21.7 
				89.1,21.7 89.2,21.7 89.4,21.7 89.5,21.7 89.7,21.8 89.8,21.9 90,21.9 90.1,22 90.2,22.1 90.3,22.2 90.4,22.3 90.5,22.5 
				90.6,22.6 90.6,22.8 90.7,23 90.7,23.3 90.7,23.6 90.7,23.9 90.7,27.3 90,27.3 90,24 90,23.7 89.9,23.5 89.9,23.3 89.8,23.1 
				89.8,23 89.7,22.9 89.6,22.7 89.5,22.7 89.4,22.6 89.3,22.5 89.2,22.5 89,22.5 88.9,22.5 88.8,22.5 88.6,22.6 88.5,22.6 
				88.4,22.7 88.3,22.7 88.2,22.8 88.2,22.9 88.1,23 88,23.2 88,23.3 87.9,23.5 87.9,23.7 87.8,23.9 87.8,24.1 87.8,24.3 87.8,27.3 
							"/>
			<path fill-rule="evenodd" clip-rule="evenodd" fill="#FFFFFF" d="M91.9,20.8v-1.1h0.8v1.1H91.9L91.9,20.8z M91.9,27.3v-5.5h0.8
				v5.5H91.9z"/>
			<polygon fill-rule="evenodd" clip-rule="evenodd" fill="#FFFFFF" points="93.4,27.3 93.4,26.6 96.3,22.5 96.1,22.6 95.8,22.6 
				95.6,22.6 95.4,22.6 93.6,22.6 93.6,21.8 97.3,21.8 97.3,22.4 94.8,25.9 94.4,26.6 94.6,26.5 94.9,26.5 95.1,26.5 95.3,26.5 
				97.4,26.5 97.4,27.3 			"/>
			<path fill-rule="evenodd" clip-rule="evenodd" fill="#FFFFFF" d="M101.1,26.6l-0.2,0.2l-0.2,0.2l-0.2,0.1l-0.2,0.1l-0.2,0.1
				l-0.2,0.1h0v-0.7l0.1,0l0.1,0l0.1,0l0.1,0l0.1-0.1l0.1,0l0.1-0.1l0.1-0.1l0.1-0.1l0.1-0.1l0.1-0.1l0.1-0.1l0-0.1l0-0.1l0-0.1
				l0-0.1l0-0.1l0-0.1l0-0.3l0-0.3v-0.3l-0.2,0.1l-0.3,0.1l-0.3,0.1l-0.3,0.1v-0.8l0.2,0l0.4-0.1l0.3-0.1l0.2-0.1v-0.2v-0.1l0-0.1
				l0-0.1l0-0.1l0-0.1l0-0.1l0-0.1l0-0.1l-0.1-0.1l-0.1-0.1l-0.1-0.1l-0.1,0l-0.1,0l-0.1,0l-0.1,0l-0.1,0l-0.1,0v-0.8h0.2h0.2l0.2,0
				l0.2,0l0.1,0l0.1,0l0.1,0l0.1,0l0.1,0.1l0.1,0.1l0.1,0.1l0.1,0.1l0.1,0.1l0.1,0.1l0.1,0.1l0,0.1l0,0.1l0.1,0.2l0,0.3l0,0.3v0.4
				V25l0,0.6v0.5l0,0.4l0,0.2l0,0.2l0,0.2l0.1,0.2l0.1,0.2h-0.8l-0.1-0.2l0-0.2l0-0.2L101.1,26.6z M99.9,27.4l-0.2,0l-0.2,0h-0.2
				l-0.2,0l-0.1,0l-0.1,0l-0.1-0.1l-0.1-0.1l-0.1-0.1L98.3,27l-0.1-0.1l-0.1-0.1l-0.1-0.1L98,26.5l0-0.1l0-0.2l0-0.2v-0.2v-0.2
				l0-0.2l0-0.1l0-0.1l0-0.1l0-0.1l0.1-0.2l0.1-0.2l0.1-0.1l0.1-0.1l0.1-0.1l0.1-0.1l0.1-0.1l0.1,0l0.1,0l0.1-0.1l0.3-0.1l0.3-0.1
				l0.2,0v0.8l-0.1,0l-0.2,0L99.4,25l-0.1,0l-0.1,0.1L99,25.2L99,25.2l-0.1,0.1l-0.1,0.1l0,0.1l0,0.1l0,0.1l0,0.1v0.1l0,0.1l0,0.1
				l0,0.1l0,0.1l0.1,0.1l0,0.1l0.1,0.1l0.1,0.1l0.1,0.1l0.1,0l0.1,0l0.1,0l0.1,0l0.1,0l0.1,0l0.1,0h0.1l0,0V27.4L99.9,27.4z
				 M99.9,22.5L99.9,22.5h-0.2l-0.1,0l-0.1,0l-0.1,0l-0.1,0l-0.1,0l-0.1,0l-0.1,0.1L99,22.8L99,22.9l0,0.1l0,0.1l0,0.1l0,0.1l0,0.1
				L98,23.4l0.1-0.2l0-0.2l0.1-0.2l0.1-0.2l0.1-0.2l0.1-0.1l0.1-0.1l0.1-0.1l0.1-0.1l0.1-0.1l0.2-0.1l0.2-0.1l0.2,0l0.2,0l0.2,0h0
				V22.5z"/>
			<polygon fill-rule="evenodd" clip-rule="evenodd" fill="#FFFFFF" points="105.9,25.3 106.7,25.4 106.7,25.7 106.6,25.9 
				106.5,26.1 106.5,26.3 106.4,26.5 106.3,26.6 106.2,26.8 106,26.9 105.9,27 105.8,27.2 105.6,27.2 105.5,27.3 105.3,27.4 
				105.1,27.4 105,27.4 104.8,27.4 104.6,27.4 104.4,27.4 104.2,27.3 104,27.3 103.8,27.2 103.6,27 103.5,26.9 103.3,26.7 
				103.3,26.6 103.2,26.5 103.1,26.4 103.1,26.3 103,26.1 102.9,25.8 102.8,25.5 102.8,25.2 102.8,24.9 102.8,24.6 102.8,24.2 
				102.8,23.9 102.9,23.6 102.9,23.3 103,23.1 103.1,22.8 103.1,22.7 103.2,22.6 103.3,22.5 103.3,22.4 103.5,22.2 103.7,22.1 
				103.8,22 104,21.9 104.2,21.8 104.4,21.7 104.6,21.7 104.8,21.7 105,21.7 105.2,21.7 105.3,21.8 105.5,21.8 105.6,21.9 
				105.7,21.9 105.9,22 106,22.1 106.1,22.2 106.2,22.4 106.3,22.5 106.4,22.7 106.5,22.9 106.5,23 106.6,23.2 106.6,23.4 
				105.9,23.6 105.8,23.4 105.8,23.3 105.8,23.2 105.7,23.1 105.7,23 105.6,22.9 105.6,22.8 105.5,22.7 105.4,22.7 105.4,22.6 
				105.3,22.6 105.2,22.5 105.1,22.5 105,22.5 104.9,22.5 104.9,22.5 104.7,22.5 104.6,22.5 104.5,22.5 104.3,22.6 104.2,22.7 
				104.1,22.7 104,22.9 103.9,23 103.8,23.1 103.7,23.3 103.7,23.4 103.6,23.6 103.6,23.8 103.6,24 103.5,24.3 103.5,24.5 
				103.5,24.8 103.6,25.1 103.6,25.3 103.6,25.5 103.7,25.7 103.7,25.9 103.8,26 103.9,26.2 104,26.3 104.1,26.4 104.2,26.5 
				104.3,26.5 104.4,26.6 104.5,26.6 104.7,26.7 104.8,26.7 104.9,26.7 105,26.7 105.1,26.6 105.2,26.6 105.3,26.5 105.4,26.5 
				105.5,26.4 105.5,26.4 105.6,26.3 105.7,26.2 105.7,26 105.8,25.9 105.9,25.8 105.9,25.6 105.9,25.5 			"/>
			<path fill-rule="evenodd" clip-rule="evenodd" fill="#FFFFFF" d="M107.3,20.8v-1.1h0.7v1.1H107.3L107.3,20.8z M107.3,27.3v-5.5
				h0.7v5.5H107.3z"/>
			<path fill-rule="evenodd" clip-rule="evenodd" fill="#FFFFFF" d="M111.1,21.7h0.2l0.2,0l0.2,0.1l0.2,0.1l0.2,0.1l0.2,0.1l0.2,0.1
				l0.2,0.2l0.1,0.2l0.1,0.2l0.1,0.2l0.1,0.3l0.1,0.3l0,0.3l0,0.3v0.3v0.4l0,0.3l0,0.3l-0.1,0.3l-0.1,0.3l-0.1,0.2l-0.1,0.1
				l-0.1,0.1l-0.1,0.1l-0.1,0.1l-0.2,0.2l-0.2,0.1l-0.2,0.1l-0.2,0.1l-0.2,0.1l-0.2,0.1l-0.2,0l-0.2,0v-0.8h0l0.1,0l0.1,0l0.1,0
				l0.1-0.1l0.1-0.1l0.1-0.1l0.1-0.1l0.1-0.1l0.1-0.1l0.1-0.1l0.1-0.2l0.1-0.2l0-0.2l0-0.2l0-0.2v-0.2v-0.3l0-0.2l0-0.2l0-0.2
				l-0.1-0.2l-0.1-0.2l-0.1-0.2L112,23l-0.1-0.1l-0.1-0.1l-0.1-0.1l-0.1-0.1l-0.1-0.1l-0.1,0l-0.1,0l-0.1,0V21.7L111.1,21.7z
				 M111.1,21.2v-1.1l0.1-0.4h1l-0.9,1.5H111.1z M109,24.6v-0.3l0-0.3l0.1-0.3l0.1-0.3l0.1-0.3l0.1-0.2l0.1-0.1l0.1-0.1l0.1-0.1
				l0.1-0.1l0.1-0.2l0.2-0.1l0.2-0.1l0.2-0.1l0.2-0.1l0.2-0.1l0.2,0h0.2l0,0v0.8h0l-0.1,0l-0.1,0l-0.1,0l-0.1,0.1l-0.1,0.1l-0.1,0.1
				l-0.1,0.1l-0.1,0.1l-0.1,0.1l-0.1,0.2l-0.1,0.2l-0.1,0.2l0,0.2l0,0.2l0,0.2v0.3l0.9-3.4l0.4-1.1v1.1h-0.4l-0.9,3.4v0.2l0,0.3
				l0,0.2l0,0.2l0.1,0.2l0.1,0.2l0.1,0.2l0.1,0.1l0.1,0.1l0.1,0.1l0.1,0.1l0.1,0.1l0.1,0.1l0.1,0l0.1,0l0.1,0v0.8l0,0l-0.2,0l-0.2,0
				l-0.2-0.1l-0.2-0.1l-0.2-0.1l-0.2-0.1l-0.2-0.1l-0.2-0.2l-0.1-0.1l-0.1-0.1l-0.1-0.1l-0.1-0.1l-0.1-0.2l-0.1-0.3l-0.1-0.3
				l-0.1-0.3l0-0.3V24.6z"/>
			<polygon fill-rule="evenodd" clip-rule="evenodd" fill="#FFFFFF" points="114.1,27.3 114.1,21.8 114.8,21.8 114.8,22.6 
				114.8,22.5 114.9,22.4 115,22.3 115.1,22.2 115.1,22.1 115.2,22.1 115.3,22 115.4,21.9 115.5,21.9 115.6,21.8 115.7,21.8 
				115.8,21.8 115.9,21.7 116,21.7 116.1,21.7 116.2,21.7 116.4,21.7 116.6,21.7 116.7,21.8 116.9,21.9 117,21.9 117.1,22 
				117.3,22.1 117.4,22.2 117.5,22.3 117.5,22.5 117.6,22.6 117.7,22.8 117.7,23 117.7,23.3 117.7,23.6 117.8,23.9 117.8,27.3 
				117,27.3 117,24 117,23.7 116.9,23.5 116.9,23.3 116.9,23.1 116.8,23 116.7,22.9 116.7,22.7 116.6,22.7 116.4,22.6 116.3,22.5 
				116.2,22.5 116,22.5 115.9,22.5 115.8,22.5 115.7,22.6 115.6,22.6 115.4,22.7 115.3,22.7 115.3,22.8 115.2,22.9 115.1,23 
				115,23.2 115,23.3 114.9,23.5 114.9,23.7 114.9,23.9 114.8,24.1 114.8,24.3 114.8,27.3 			"/>
		</g>
		<g>
			<rect x="67.7" y="30.5" fill-rule="evenodd" clip-rule="evenodd" fill="#FFFFFF" width="0.8" height="7.6"/>
			<polygon fill-rule="evenodd" clip-rule="evenodd" fill="#FFFFFF" points="69.8,38.1 69.8,32.6 70.5,32.6 70.5,33.4 70.6,33.3 
				70.6,33.2 70.7,33.1 70.8,33 70.9,32.9 70.9,32.8 71,32.8 71.1,32.7 71.2,32.7 71.3,32.6 71.4,32.6 71.5,32.5 71.6,32.5 
				71.7,32.5 71.8,32.5 71.9,32.5 72.1,32.5 72.3,32.5 72.5,32.6 72.6,32.6 72.8,32.7 72.9,32.8 73,32.9 73.1,33 73.2,33.1 
				73.3,33.3 73.3,33.4 73.4,33.6 73.4,33.8 73.5,34.1 73.5,34.4 73.5,34.7 73.5,38.1 72.7,38.1 72.7,34.8 72.7,34.5 72.7,34.2 
				72.7,34 72.6,33.9 72.5,33.7 72.5,33.6 72.4,33.5 72.3,33.5 72.2,33.4 72,33.3 71.9,33.3 71.8,33.3 71.6,33.3 71.5,33.3 
				71.4,33.3 71.3,33.4 71.2,33.5 71.1,33.5 71,33.6 70.9,33.7 70.8,33.8 70.8,33.9 70.7,34.1 70.7,34.3 70.6,34.4 70.6,34.6 
				70.6,34.9 70.6,35.1 70.6,38.1 			"/>
			<polygon fill-rule="evenodd" clip-rule="evenodd" fill="#FFFFFF" points="76.4,37.3 76.5,38.1 76.3,38.1 76.2,38.1 76,38.2 
				75.9,38.2 75.7,38.2 75.5,38.1 75.4,38.1 75.2,38 75.1,37.9 75,37.8 75,37.7 74.9,37.6 74.9,37.4 74.8,37.2 74.8,36.9 74.8,36.5 
				74.8,33.3 74.3,33.3 74.3,32.6 74.8,32.6 74.8,31.3 75.6,30.7 75.6,32.6 76.4,32.6 76.4,33.3 75.6,33.3 75.6,36.5 75.6,36.8 
				75.6,36.9 75.6,37 75.7,37.1 75.7,37.2 75.7,37.2 75.7,37.2 75.8,37.3 75.8,37.3 75.9,37.3 76,37.3 76,37.3 76.2,37.3 			"/>
			<path fill-rule="evenodd" clip-rule="evenodd" fill="#FFFFFF" d="M80.1,36.3l0.8,0.1l-0.1,0.2l-0.1,0.2l-0.1,0.2l-0.1,0.2
				l-0.1,0.2l-0.1,0.1l-0.1,0.1l-0.1,0.1l-0.1,0.1L79.9,38l-0.2,0.1l-0.1,0.1l-0.2,0l-0.2,0l-0.2,0h-0.2h0v-0.8l0.1,0l0.1,0l0.1,0
				l0.1,0l0.1,0l0.1,0l0.1,0l0.1-0.1l0.1-0.1l0.1-0.1l0.1-0.1l0.1-0.1l0.1-0.1l0.1-0.1l0.1-0.1l0-0.1L80.1,36.3L80.1,36.3z
				 M78.9,32.5L78.9,32.5l0.2,0l0.2,0l0.2,0.1l0.2,0.1l0.2,0.1l0.2,0.1l0.2,0.1l0.2,0.2l0.1,0.2l0.1,0.2l0.1,0.2l0.1,0.3l0.1,0.3
				l0.1,0.3l0,0.3v0.3v0.3h-2.1v-0.8h1.3l0-0.2l0-0.2l0-0.1l0-0.1l0-0.1L79.9,34l-0.1-0.1l0-0.1l-0.1-0.1l-0.1-0.1l-0.1-0.1
				l-0.1-0.1l-0.1-0.1l-0.1,0l-0.1,0h-0.1h0V32.5z M78.9,38.2l-0.2,0l-0.2,0l-0.2-0.1L78.1,38L77.9,38l-0.2-0.1l-0.2-0.1l-0.1-0.2
				l-0.1-0.1l-0.1-0.1l-0.1-0.1l0-0.1L77,36.9L77,36.6l-0.1-0.3l0-0.3l0-0.3v-0.3v-0.3l0-0.3l0-0.3l0.1-0.3l0.1-0.3l0.1-0.2l0.1-0.1
				l0-0.1l0.1-0.1l0.1-0.1l0.2-0.2l0.2-0.1l0.2-0.1l0.2-0.1l0.2-0.1l0.2-0.1l0.2,0l0.2,0v0.8h-0.1l-0.1,0l-0.1,0l-0.1,0l-0.1,0.1
				l-0.1,0.1l-0.1,0.1L78,33.7l-0.1,0.1l-0.1,0.1L77.8,34l-0.1,0.1l0,0.2l0,0.2l0,0.2l0,0.2h1.3v0.8h-1.3l0,0.2l0,0.2l0,0.2l0,0.2
				l0.1,0.2l0.1,0.2l0.1,0.2L78,37l0.1,0.1l0.1,0.1l0.1,0.1l0.1,0.1l0.1,0.1l0.1,0l0.1,0h0.1V38.2z"/>
			<polygon fill-rule="evenodd" clip-rule="evenodd" fill="#FFFFFF" points="81.9,38.1 81.9,32.6 82.6,32.6 82.6,33.4 82.7,33.2 
				82.8,33 82.9,32.8 83.1,32.7 83.2,32.6 83.3,32.5 83.4,32.5 83.6,32.5 83.6,32.5 83.7,32.5 83.8,32.5 83.9,32.6 84,32.6 
				84.1,32.6 84.2,32.7 84.3,32.8 84.1,33.6 83.9,33.6 83.8,33.5 83.7,33.5 83.5,33.5 83.4,33.5 83.3,33.5 83.2,33.5 83.1,33.6 
				83,33.7 82.9,33.8 82.8,34 82.8,34.1 82.7,34.4 82.7,34.6 82.7,34.9 82.6,35.2 82.6,38.1 			"/>
			<polygon fill-rule="evenodd" clip-rule="evenodd" fill="#FFFFFF" points="84.8,38.1 84.8,32.6 85.5,32.6 85.5,33.4 85.5,33.3 
				85.6,33.2 85.7,33.1 85.7,33 85.8,32.9 85.9,32.8 86,32.8 86.1,32.7 86.2,32.7 86.3,32.6 86.4,32.6 86.5,32.5 86.6,32.5 
				86.7,32.5 86.8,32.5 86.9,32.5 87.1,32.5 87.2,32.5 87.4,32.6 87.6,32.6 87.7,32.7 87.8,32.8 88,32.9 88.1,33 88.2,33.1 
				88.2,33.3 88.3,33.4 88.4,33.6 88.4,33.8 88.4,34.1 88.4,34.4 88.4,34.7 88.4,38.1 87.7,38.1 87.7,34.8 87.7,34.5 87.6,34.2 
				87.6,34 87.6,33.9 87.5,33.7 87.4,33.6 87.4,33.5 87.2,33.5 87.1,33.4 87,33.3 86.9,33.3 86.7,33.3 86.6,33.3 86.5,33.3 
				86.4,33.3 86.2,33.4 86.1,33.5 86,33.5 85.9,33.6 85.9,33.7 85.8,33.8 85.7,33.9 85.7,34.1 85.6,34.3 85.6,34.4 85.6,34.6 
				85.5,34.9 85.5,35.1 85.5,38.1 			"/>
			<path fill-rule="evenodd" clip-rule="evenodd" fill="#FFFFFF" d="M92.5,37.4l-0.2,0.2l-0.2,0.2l-0.2,0.1L91.7,38l-0.2,0.1
				l-0.2,0.1l0,0v-0.7l0,0l0.1,0l0.1,0l0.1,0l0.1-0.1l0.1-0.1l0.1-0.1l0.1,0l0.1-0.1l0.1-0.1l0-0.1l0.1-0.1l0.1-0.1l0-0.1l0-0.1
				l0-0.1l0-0.1l0-0.1l0-0.3l0-0.3v-0.3l-0.2,0.1l-0.3,0.1l-0.3,0.1l-0.3,0.1v-0.8l0.2,0l0.4-0.1l0.3-0.1l0.3-0.1v-0.3v-0.1l0-0.1
				l0-0.1l0-0.1l0-0.1l0-0.1l0-0.1l-0.1-0.1l-0.1-0.1l-0.1-0.1l-0.1,0l-0.1,0l-0.1,0l-0.1,0l-0.1,0l-0.1,0l-0.1,0v-0.8h0.2h0.2
				l0.2,0l0.1,0l0.1,0l0.1,0l0.1,0l0.1,0.1l0.1,0.1l0.1,0.1l0.1,0.1l0.1,0.1l0.1,0.1l0,0.1l0.1,0.1l0,0.1l0,0.1l0.1,0.2l0,0.3l0,0.3
				l0,0.4v1.3v0.6v0.5l0,0.4l0,0.2l0,0.2l0,0.2l0.1,0.2l0.1,0.2h-0.8L92.6,38l0-0.2l0-0.2L92.5,37.4z M91.3,38.2l-0.2,0l-0.2,0h-0.2
				l-0.2,0l-0.2,0l-0.1,0l-0.1-0.1L90,38l-0.1-0.1l-0.1-0.1l-0.1-0.1l-0.1-0.1l-0.1-0.1l-0.1-0.1l0-0.1l0-0.2l0-0.2v-0.2l0-0.2
				l0-0.2l0-0.1l0-0.1l0-0.1l0.1-0.1l0.1-0.2l0.1-0.2l0.1-0.1l0.1-0.1l0.1-0.1l0.1,0l0.1-0.1l0.1,0l0.1,0l0.1-0.1l0.3-0.1l0.3-0.1
				l0.2,0v0.8l-0.1,0l-0.2,0l-0.2,0l-0.1,0l-0.1,0.1L90.5,36L90.4,36l-0.1,0.1l-0.1,0.1l0,0.1l0,0.1l0,0.1v0.1v0.1l0,0.1l0,0.1
				l0,0.1l0,0.1l0,0.1l0.1,0.1l0.1,0.1l0.1,0.1l0.1,0.1l0.1,0l0.1,0l0.1,0l0.1,0l0.1,0l0.1,0l0.1,0h0.1l0.1,0V38.2L91.3,38.2z
				 M91.3,33.3L91.3,33.3h-0.2l-0.1,0l-0.1,0l-0.1,0l-0.1,0l-0.1,0l-0.1,0.1l-0.1,0.1l-0.1,0.1l-0.1,0.1l0,0.1l-0.1,0.1l0,0.1l0,0.1
				l0,0.1l-0.7-0.1l0-0.2l0.1-0.2l0.1-0.2l0.1-0.2l0.1-0.2l0.1-0.1L90,33l0.1-0.1l0.1-0.1l0.1-0.1l0.2-0.1l0.2-0.1l0.2,0l0.2,0
				l0.2,0h0V33.3z"/>
			<polygon fill-rule="evenodd" clip-rule="evenodd" fill="#FFFFFF" points="97.4,36.1 98.1,36.2 98.1,36.5 98,36.7 98,36.9 
				97.9,37.1 97.8,37.3 97.7,37.4 97.6,37.6 97.5,37.7 97.3,37.8 97.2,37.9 97.1,38 96.9,38.1 96.8,38.2 96.6,38.2 96.4,38.2 
				96.2,38.2 96,38.2 95.8,38.2 95.6,38.1 95.4,38 95.3,38 95.1,37.8 94.9,37.7 94.8,37.5 94.7,37.4 94.6,37.3 94.6,37.2 94.5,37.1 
				94.4,36.9 94.3,36.6 94.3,36.3 94.2,36 94.2,35.7 94.2,35.3 94.2,35 94.2,34.7 94.3,34.4 94.4,34.1 94.4,33.8 94.5,33.6 
				94.6,33.5 94.6,33.4 94.7,33.3 94.8,33.2 94.9,33 95.1,32.9 95.3,32.8 95.5,32.7 95.6,32.6 95.8,32.5 96,32.5 96.3,32.5 
				96.4,32.5 96.6,32.5 96.8,32.5 96.9,32.6 97.1,32.7 97.2,32.7 97.3,32.8 97.4,32.9 97.6,33 97.7,33.2 97.8,33.3 97.8,33.5 
				97.9,33.6 98,33.8 98,34 98.1,34.2 97.3,34.4 97.3,34.2 97.3,34.1 97.2,34 97.2,33.9 97.1,33.8 97.1,33.7 97,33.6 96.9,33.5 
				96.9,33.5 96.8,33.4 96.7,33.4 96.6,33.3 96.6,33.3 96.5,33.3 96.4,33.3 96.3,33.3 96.2,33.3 96,33.3 95.9,33.3 95.8,33.4 
				95.7,33.5 95.6,33.5 95.5,33.6 95.4,33.8 95.3,33.9 95.2,34 95.1,34.2 95.1,34.4 95,34.6 95,34.8 95,35.1 95,35.3 95,35.6 
				95,35.9 95,36.1 95.1,36.3 95.1,36.5 95.2,36.7 95.3,36.8 95.3,37 95.4,37.1 95.5,37.2 95.6,37.3 95.8,37.3 95.9,37.4 96,37.4 
				96.1,37.5 96.3,37.5 96.4,37.5 96.5,37.4 96.6,37.4 96.7,37.4 96.7,37.3 96.8,37.3 96.9,37.2 97,37.1 97.1,37 97.1,36.9 
				97.2,36.8 97.2,36.7 97.3,36.6 97.3,36.4 97.4,36.3 			"/>
			<path fill-rule="evenodd" clip-rule="evenodd" fill="#FFFFFF" d="M98.8,31.6v-1.1h0.8v1.1H98.8L98.8,31.6z M98.8,38.1v-5.5h0.8
				v5.5H98.8z"/>
			<path fill-rule="evenodd" clip-rule="evenodd" fill="#FFFFFF" d="M102.5,32.5h0.2l0.2,0l0.2,0l0.2,0.1l0.2,0.1l0.2,0.1l0.2,0.1
				l0.2,0.2l0.1,0.2l0.1,0.2l0.1,0.2l0.1,0.3l0.1,0.3l0.1,0.3l0,0.3l0,0.3l0,0.4l0,0.3l-0.1,0.3l-0.1,0.3l-0.1,0.3l-0.1,0.2
				l-0.1,0.1l-0.1,0.1l-0.1,0.1l-0.1,0.1l-0.1,0.2l-0.2,0.1l-0.2,0.1l-0.2,0.1l-0.2,0.1l-0.2,0.1l-0.2,0l-0.2,0v-0.8h0l0.1,0l0.1,0
				l0.1,0l0.1-0.1l0.1-0.1l0.1-0.1l0.1-0.1l0.1-0.1l0.1-0.1l0.1-0.1l0.1-0.2l0.1-0.2l0-0.2l0-0.2l0-0.2v-0.3v-0.3l0-0.2l0-0.2l0-0.2
				l-0.1-0.2l-0.1-0.2l-0.1-0.2l-0.1-0.1l-0.1-0.1l-0.1-0.1l-0.1-0.1l-0.1-0.1l-0.1-0.1l-0.1,0l-0.1,0l-0.1,0V32.5z M100.4,35.4
				l0-0.3l0-0.3l0-0.3l0.1-0.3l0.1-0.3l0.1-0.2l0.1-0.1l0-0.1l0.1-0.1l0.1-0.1l0.2-0.2l0.2-0.1l0.2-0.1l0.2-0.1l0.2-0.1l0.2,0l0.2,0
				h0.2l0,0v0.8h0l-0.2,0l-0.1,0l-0.1,0l-0.1,0.1l-0.1,0.1l-0.1,0.1l-0.1,0.1l-0.1,0.1l-0.1,0.1l-0.1,0.2l-0.1,0.2l-0.1,0.2l0,0.2
				l0,0.2l0,0.2l0,0.3l0,0.3l0,0.2l0,0.2l0,0.2l0.1,0.2l0.1,0.2l0.1,0.2l0.1,0.1l0.1,0.1l0.1,0.1l0.1,0.1l0.1,0.1l0.1,0.1l0.1,0
				l0.1,0l0.1,0v0.8l0,0l-0.2,0l-0.2,0l-0.2-0.1l-0.2-0.1l-0.2-0.1l-0.2-0.1l-0.2-0.1l-0.2-0.2l-0.1-0.1l-0.1-0.1l-0.1-0.1l-0.1-0.1
				l-0.1-0.2l-0.1-0.3l-0.1-0.3l0-0.3l0-0.3L100.4,35.4z"/>
			<polygon fill-rule="evenodd" clip-rule="evenodd" fill="#FFFFFF" points="105.5,38.1 105.5,32.6 106.2,32.6 106.2,33.4 
				106.3,33.3 106.3,33.2 106.4,33.1 106.5,33 106.6,32.9 106.7,32.8 106.7,32.8 106.8,32.7 106.9,32.7 107,32.6 107.1,32.6 
				107.2,32.5 107.3,32.5 107.4,32.5 107.5,32.5 107.7,32.5 107.8,32.5 108,32.5 108.2,32.6 108.3,32.6 108.5,32.7 108.6,32.8 
				108.7,32.9 108.8,33 108.9,33.1 109,33.3 109,33.4 109.1,33.6 109.1,33.8 109.2,34.1 109.2,34.4 109.2,34.7 109.2,38.1 
				108.4,38.1 108.4,34.8 108.4,34.5 108.4,34.2 108.4,34 108.3,33.9 108.3,33.7 108.2,33.6 108.1,33.5 108,33.5 107.9,33.4 
				107.8,33.3 107.6,33.3 107.5,33.3 107.3,33.3 107.2,33.3 107.1,33.3 107,33.4 106.9,33.5 106.8,33.5 106.7,33.6 106.6,33.7 
				106.5,33.8 106.5,33.9 106.4,34.1 106.4,34.3 106.3,34.4 106.3,34.6 106.3,34.9 106.3,35.1 106.3,38.1 			"/>
			<path fill-rule="evenodd" clip-rule="evenodd" fill="#FFFFFF" d="M113.3,37.4l-0.2,0.2l-0.2,0.2l-0.2,0.1l-0.2,0.1l-0.2,0.1
				l-0.2,0.1v-0.7l0,0l0.1,0l0.1,0l0.1,0l0.1-0.1l0.1-0.1l0.1-0.1l0.1,0l0.1-0.1l0.1-0.1l0-0.1l0.1-0.1l0-0.1l0.1-0.1l0-0.1l0-0.1
				l0-0.1l0-0.1l0-0.3l0-0.3v-0.3l-0.2,0.1l-0.3,0.1l-0.3,0.1l-0.3,0.1v-0.8l0.2,0l0.4-0.1l0.3-0.1l0.3-0.1l0-0.3l0-0.1v-0.1l0-0.1
				l0-0.1l0-0.1l0-0.1l0-0.1l-0.1-0.1l-0.1-0.1l-0.1-0.1l-0.1,0l-0.1,0l-0.1,0l-0.1,0l-0.1,0l-0.1,0l-0.1,0v-0.8h0.2h0.2l0.2,0
				l0.2,0l0.1,0l0.1,0l0.1,0l0.1,0.1l0.1,0.1l0.1,0.1l0.1,0.1l0.1,0.1l0.1,0.1l0,0.1l0.1,0.1l0,0.1l0,0.1l0,0.2l0,0.3l0,0.3l0,0.4
				v1.3v0.6l0,0.5l0,0.4l0,0.2l0,0.2l0,0.2l0.1,0.2l0.1,0.2h-0.8l-0.1-0.2l-0.1-0.2l0-0.2L113.3,37.4z M112.1,38.2L112.1,38.2
				l-0.2,0l-0.2,0h-0.2l-0.2,0l-0.2,0l-0.1,0l-0.1-0.1l-0.1-0.1l-0.1-0.1l-0.1-0.1l-0.1-0.1l-0.1-0.1l-0.1-0.1l-0.1-0.1l0-0.1l0-0.2
				l0-0.2l0-0.2l0-0.2l0-0.2l0-0.1l0-0.1l0-0.1l0.1-0.1l0.1-0.2l0.1-0.2l0.1-0.1l0.1-0.1l0.1-0.1l0.1,0l0.1-0.1l0.1,0l0.1,0l0.1-0.1
				l0.3-0.1l0.3-0.1l0.2,0v0.8l-0.1,0l-0.2,0l-0.2,0l-0.2,0l-0.1,0.1l-0.1,0.1l-0.1,0.1l-0.1,0.1l-0.1,0.1l-0.1,0.1l0,0.1l0,0.1v0.1
				v0.1l0,0.1l0,0.1l0,0.1l0,0.1l0,0.1l0.1,0.1l0.1,0.1l0.1,0.1l0.1,0.1l0.1,0l0.1,0l0.1,0l0.1,0l0.1,0l0.1,0l0.1,0h0.1l0.1,0V38.2
				L112.1,38.2z M112.1,33.3L112.1,33.3h-0.2l-0.1,0l-0.1,0l-0.1,0l-0.1,0l-0.1,0l-0.1,0.1l-0.1,0.1l-0.1,0.1l-0.1,0.1l-0.1,0.1
				l0,0.1l0,0.1l0,0.1l0,0.1l-0.7-0.1l0-0.2l0.1-0.2l0.1-0.2l0.1-0.2l0.1-0.2l0.1-0.1l0.1-0.1l0.1-0.1l0.1-0.1l0.1-0.1l0.1-0.1
				l0.2-0.1l0.2,0l0.2,0l0.2,0h0V33.3z"/>
			<rect x="115.2" y="30.5" fill-rule="evenodd" clip-rule="evenodd" fill="#FFFFFF" width="0.8" height="7.6"/>
		</g>
		<g>
			<path fill-rule="evenodd" clip-rule="evenodd" fill="#FFFFFF" d="M69.7,41.4L69.7,41.4h0.2l0.1,0l0.1,0l0.1,0l0.1,0l0.1,0
				l0.1,0.1l0.1,0.1l0.1,0.1l0.1,0.1l0.1,0.1l0.1,0.1l0.1,0.1l0.1,0.1l0.1,0.1l0.1,0.2l0.1,0.2l0.1,0.2l0,0.2l0,0.2l0,0.2l0,0.2
				l0,0.2v0.2v0.3l0,0.3l0,0.3l-0.1,0.3l-0.1,0.2l-0.1,0.3l-0.1,0.2l-0.1,0.2L71,46.5l-0.2,0.2l-0.2,0.1l-0.2,0.1L70.3,47l-0.2,0.1
				l-0.2,0l-0.2,0h0v-0.8l0.1,0l0.1,0l0.1,0l0.1,0l0.1-0.1l0.1-0.1l0.1-0.1l0.1-0.1l0.1-0.1l0.1-0.1l0.1-0.2l0-0.2l0-0.2l0-0.2
				l0-0.2l0-0.3v-0.3l0-0.2l0-0.2l0-0.2l0-0.2l-0.1-0.2l-0.1-0.2l-0.1-0.1l-0.1-0.1l-0.1-0.1l-0.1-0.1l-0.1-0.1l-0.1-0.1l-0.1,0
				l-0.1,0l-0.1,0V41.4z M67.8,49.1v-7.6h0.7v0.7l0.1-0.2l0.1-0.2l0.1-0.1l0.1-0.1l0.1-0.1l0.1,0l0.1-0.1l0.1,0l0.1,0l0.1,0l0.2,0
				l0.1,0v0.7l-0.1,0l-0.1,0l-0.1,0l-0.1,0.1l-0.1,0.1l-0.1,0.1L69,42.5l-0.1,0.1l-0.1,0.2L68.7,43l0,0.2l-0.1,0.2l-0.1,0.2l0,0.2
				l0,0.3l0,0.2l0,0.3l0,0.2l0,0.2l0,0.2l0,0.2l0.1,0.2l0.1,0.1l0.1,0.1l0.1,0.1l0.1,0.1l0.1,0.1l0.1,0.1l0.1,0l0.1,0l0.1,0l0.1,0
				v0.8l-0.1,0l-0.2,0L69.2,47l-0.2-0.1l-0.1-0.1l-0.1-0.1l-0.1-0.1l-0.1-0.2v2.7H67.8z"/>
			<path fill-rule="evenodd" clip-rule="evenodd" fill="#FFFFFF" d="M75.6,46.3l-0.2,0.2l-0.2,0.2L75,46.8l-0.2,0.1L74.6,47
				l-0.2,0.1h0v-0.7l0,0l0.1,0l0.1,0l0.1,0l0.1,0l0.1-0.1l0.1-0.1l0.1,0l0.1-0.1l0.1-0.1l0.1-0.1l0.1-0.1l0.1-0.1l0-0.1l0-0.1l0-0.1
				l0-0.1l0-0.1l0-0.3l0-0.3v-0.3l-0.2,0.1L75,44.4l-0.3,0.1l-0.3,0.1v-0.8l0.2,0l0.4-0.1l0.3-0.1l0.3-0.1v-0.3v-0.1l0-0.1l0-0.1
				l0-0.1l0-0.1l0-0.1l0-0.1l0-0.1l-0.1-0.1l-0.1-0.1L75,42.3l-0.1,0l-0.1,0l-0.1,0l-0.1,0l-0.1,0h-0.1v-0.8h0.2h0.2l0.2,0l0.1,0
				l0.1,0l0.1,0l0.1,0l0.1,0.1l0.1,0.1l0.1,0.1l0.1,0.1l0.1,0.1l0.1,0.1l0,0.1l0.1,0.1l0,0.1l0,0.1l0.1,0.2l0,0.3l0,0.3v0.4v1.2
				l0,0.6v0.5l0,0.4l0,0.2l0,0.2l0,0.2l0.1,0.2l0.1,0.2h-0.8l-0.1-0.2l0-0.2l0-0.2L75.6,46.3z M74.3,47.1l-0.2,0l-0.2,0h-0.2l-0.2,0
				l-0.1,0l-0.1,0l-0.1-0.1L73,46.9l-0.1-0.1l-0.1-0.1l-0.1-0.1l-0.1-0.1l-0.1-0.1l-0.1-0.1l0-0.1l0-0.2l0-0.2v-0.2l0-0.2l0-0.2
				l0-0.1l0-0.1l0-0.1l0.1-0.1l0-0.1l0.1-0.1l0.1-0.1l0.1-0.1l0.1-0.1l0.1-0.1l0.1-0.1l0.1-0.1l0.1,0l0.1,0l0.1,0l0.1-0.1l0.3-0.1
				l0.3-0.1l0.2,0v0.8l-0.1,0l-0.2,0l-0.2,0.1l-0.1,0l-0.1,0l-0.1,0.1l-0.1,0.1L73.4,45l-0.1,0.1l0,0.1l0,0.1l0,0.1l0,0.1l0,0.1v0.1
				l0,0.1l0,0.1l0,0.1l0,0.1l0,0.1l0.1,0.1l0.1,0.1l0.1,0l0.1,0l0.1,0l0.1,0l0.1,0l0.1,0l0.1,0l0.1,0h0.1l0,0V47.1L74.3,47.1z
				 M74.3,42.1L74.3,42.1l-0.2,0l-0.1,0l-0.1,0l-0.1,0l-0.1,0l-0.1,0l-0.1,0.1l-0.1,0.1l-0.1,0.1l-0.1,0.1l0,0.1l-0.1,0.1l0,0.1
				l0,0.1l0,0.1l-0.7-0.1l0-0.2l0.1-0.2l0.1-0.2l0.1-0.2l0.1-0.2l0.1-0.1l0.1-0.1l0.1-0.1l0.1-0.1l0.1-0.1l0.2-0.1l0.2-0.1l0.2,0
				l0.2,0l0.2,0h0V42.1z"/>
			<polygon fill-rule="evenodd" clip-rule="evenodd" fill="#FFFFFF" points="77.5,47 77.5,41.5 78.1,41.5 78.1,42.3 78.3,42.1 
				78.4,41.9 78.5,41.7 78.6,41.6 78.7,41.5 78.9,41.4 79,41.4 79.1,41.4 79.2,41.4 79.3,41.4 79.4,41.4 79.5,41.4 79.6,41.5 
				79.7,41.5 79.8,41.6 79.9,41.7 79.6,42.5 79.5,42.4 79.4,42.4 79.2,42.4 79.1,42.3 79,42.4 78.9,42.4 78.7,42.4 78.6,42.5 
				78.6,42.6 78.5,42.7 78.4,42.8 78.4,43 78.3,43.2 78.2,43.5 78.2,43.8 78.2,44.1 78.2,47 			"/>
			<path fill-rule="evenodd" clip-rule="evenodd" fill="#FFFFFF" d="M83.3,46.3l-0.2,0.2l-0.2,0.2l-0.2,0.1l-0.2,0.1L82.3,47
				l-0.2,0.1h0v-0.7l0,0l0.1,0l0.1,0l0.1,0l0.1,0l0.1-0.1l0.1-0.1l0.1,0l0.1-0.1l0.1-0.1l0.1-0.1l0-0.1l0.1-0.1l0-0.1l0-0.1l0-0.1
				l0-0.1l0-0.1l0-0.3l0-0.3v-0.3L83,44.3l-0.3,0.1l-0.3,0.1l-0.3,0.1v-0.8l0.2,0l0.4-0.1l0.3-0.1l0.2-0.1v-0.3v-0.1l0-0.1l0-0.1
				l0-0.1l0-0.1l0-0.1l0-0.1l0-0.1l-0.1-0.1l-0.1-0.1l-0.1-0.1l-0.1,0l-0.1,0l-0.1,0l-0.1,0l-0.1,0h-0.1v-0.8h0.2h0.2l0.2,0l0.2,0
				l0.1,0l0.1,0l0.1,0l0.1,0.1l0.1,0.1l0.1,0.1l0.1,0.1l0.1,0.1l0.1,0.1l0.1,0.1l0,0.1l0,0.1l0,0.1l0.1,0.2l0,0.3l0,0.3v0.4v1.2v0.6
				l0,0.5l0,0.4l0,0.2l0,0.2l0.1,0.2l0,0.2l0.1,0.2h-0.8l-0.1-0.2l0-0.2l0-0.2L83.3,46.3z M82.1,47.1l-0.2,0l-0.2,0h-0.2l-0.2,0
				l-0.1,0L81,47l-0.1-0.1l-0.1-0.1l-0.1-0.1l-0.1-0.1l-0.1-0.1l-0.1-0.1l-0.1-0.1l-0.1-0.1l0-0.1l0-0.2l0-0.2l0-0.2l0-0.2l0-0.2
				l0-0.1l0-0.1l0-0.1l0-0.1l0.1-0.2l0.1-0.2l0.1-0.1l0.1-0.1l0.1-0.1l0.1-0.1l0.1,0l0.1,0l0.1,0l0.1-0.1l0.3-0.1l0.3-0.1l0.2,0v0.8
				l-0.1,0l-0.2,0l-0.2,0.1l-0.1,0l-0.1,0l-0.1,0.1l-0.1,0.1L81.1,45L81,45.1l0,0.1l0,0.1l0,0.1l0,0.1v0.1l0,0.1l0,0.1l0,0.1l0,0.1
				l0,0.1l0,0.1l0.1,0.1l0.1,0.1l0.1,0l0.1,0l0.1,0l0.1,0l0.1,0l0.1,0l0.1,0l0.1,0H82l0,0V47.1L82.1,47.1z M82.1,42.1L82.1,42.1
				l-0.2,0l-0.1,0l-0.1,0l-0.1,0l-0.1,0l-0.1,0l-0.1,0.1l-0.1,0.1l-0.1,0.1l-0.1,0.1l0,0.1l0,0.1l0,0.1l0,0.1l0,0.1l-0.7-0.1
				l0.1-0.2l0-0.2l0.1-0.2l0.1-0.2l0.1-0.2l0.1-0.1l0.1-0.1l0.1-0.1l0.1-0.1l0.1-0.1l0.2-0.1l0.2-0.1l0.2,0l0.2,0l0.2,0h0V42.1z"/>
			<rect x="87.6" y="39.4" fill-rule="evenodd" clip-rule="evenodd" fill="#FFFFFF" width="0.8" height="7.6"/>
			<path fill-rule="evenodd" clip-rule="evenodd" fill="#FFFFFF" d="M92.4,46.3l-0.2,0.2l-0.2,0.2l-0.2,0.1l-0.2,0.1L91.4,47
				l-0.2,0.1v-0.7l0.1,0l0.1,0l0.1,0l0.1,0l0.1,0l0.1-0.1l0.1-0.1l0.1,0l0.1-0.1l0.1-0.1l0.1-0.1l0.1-0.1l0.1-0.1l0-0.1l0-0.1l0-0.1
				l0-0.1l0-0.1l0-0.3l0-0.3v-0.3l-0.2,0.1l-0.3,0.1l-0.3,0.1l-0.3,0.1v-0.8l0.2,0l0.4-0.1l0.3-0.1l0.3-0.1l0-0.3l0-0.1V43l0-0.1
				l0-0.1l0-0.1l0-0.1l0-0.1l-0.1-0.1l-0.1-0.1L92,42.3l-0.1-0.1l-0.1,0l-0.1,0l-0.1,0l-0.1,0l-0.1,0h-0.1v-0.8h0.2h0.2l0.2,0l0.1,0
				l0.1,0l0.1,0l0.1,0l0.1,0.1l0.1,0.1l0.1,0.1l0.1,0.1l0.1,0.1l0.1,0.1l0.1,0.1l0.1,0.1l0,0.1l0,0.1l0.1,0.2l0,0.3l0,0.3l0,0.4v1.2
				v0.6l0,0.5l0,0.4l0,0.2l0,0.2l0,0.2l0.1,0.2l0.1,0.2h-0.8l-0.1-0.2l0-0.2l0-0.2L92.4,46.3z M91.2,47.1L91.2,47.1l-0.2,0l-0.2,0
				h-0.2l-0.2,0l-0.2,0l-0.1,0L90,46.9l-0.1-0.1l-0.1-0.1l-0.1-0.1l-0.1-0.1l-0.1-0.1l-0.1-0.1l-0.1-0.1L89.3,46l0-0.2l0-0.2v-0.2
				l0-0.2l0-0.2l0-0.1l0-0.1l0-0.1l0-0.1l0.1-0.1l0.1-0.1l0.1-0.1l0.1-0.1l0.1-0.1l0.1-0.1l0.1-0.1l0.1-0.1l0.1,0l0.1,0l0.1,0
				l0.1-0.1l0.3-0.1l0.3-0.1l0.2,0v0.8l-0.1,0l-0.2,0l-0.2,0.1l-0.1,0l-0.1,0l-0.1,0.1l-0.1,0.1L90.2,45l-0.1,0.1l0,0.1l0,0.1l0,0.1
				v0.1v0.1l0,0.1l0,0.1l0,0.1l0,0.1l0,0.1l0.1,0.1l0,0.1l0.1,0.1l0.1,0l0.1,0l0.1,0l0.1,0l0.1,0l0.1,0l0.1,0l0.1,0h0.1l0,0V47.1
				L91.2,47.1z M91.2,42.1L91.2,42.1l-0.2,0l-0.1,0l-0.1,0l-0.1,0l-0.1,0l-0.1,0l-0.1,0.1l-0.1,0.1l0,0.1l-0.1,0.1l-0.1,0.1l0,0.1
				l0,0.1l0,0.1l0,0.1l-0.7-0.1l0-0.2l0.1-0.2l0.1-0.2l0.1-0.2l0.1-0.2l0.1-0.1l0.1-0.1l0.1-0.1l0.1-0.1l0.1-0.1l0.2-0.1l0.2-0.1
				l0.2,0l0.2,0l0.2,0h0V42.1z"/>
			<polygon fill-rule="evenodd" clip-rule="evenodd" fill="#FFFFFF" points="94.1,45.3 94.8,45.2 94.8,45.3 94.9,45.5 94.9,45.6 
				94.9,45.7 95,45.8 95,45.9 95.1,46 95.2,46.1 95.3,46.1 95.3,46.2 95.4,46.2 95.5,46.3 95.6,46.3 95.7,46.3 95.8,46.3 96,46.3 
				96.1,46.3 96.2,46.3 96.3,46.3 96.4,46.3 96.5,46.2 96.6,46.2 96.7,46.2 96.7,46.1 96.8,46 96.9,46 96.9,45.9 96.9,45.8 97,45.7 
				97,45.6 97,45.6 97,45.5 97,45.4 97,45.3 97,45.2 97,45.2 96.9,45.1 96.9,45.1 96.8,45 96.8,45 96.7,44.9 96.5,44.8 96.3,44.7 
				96,44.7 95.6,44.5 95.3,44.4 95,44.3 94.8,44.2 94.7,44.1 94.5,44 94.4,43.8 94.3,43.7 94.3,43.5 94.2,43.3 94.2,43.2 94.2,43 
				94.2,42.8 94.2,42.6 94.2,42.5 94.3,42.3 94.4,42.2 94.4,42 94.5,41.9 94.6,41.8 94.8,41.7 94.9,41.6 95,41.5 95.2,41.5 
				95.3,41.4 95.5,41.4 95.7,41.4 95.9,41.4 96.1,41.4 96.3,41.4 96.6,41.5 96.8,41.5 96.9,41.7 97.1,41.8 97.2,41.8 97.2,41.9 
				97.3,42 97.3,42 97.4,42.1 97.4,42.2 97.5,42.3 97.5,42.4 97.6,42.6 97.6,42.9 96.9,43 96.9,42.9 96.8,42.8 96.8,42.7 96.8,42.6 
				96.7,42.6 96.7,42.5 96.6,42.4 96.6,42.4 96.5,42.3 96.5,42.3 96.4,42.2 96.3,42.2 96.2,42.2 96.1,42.2 96,42.1 95.9,42.1 
				95.8,42.1 95.7,42.2 95.6,42.2 95.5,42.2 95.4,42.2 95.3,42.2 95.2,42.3 95.2,42.3 95.1,42.4 95.1,42.4 95,42.5 95,42.6 95,42.6 
				94.9,42.7 94.9,42.8 94.9,42.9 94.9,42.9 94.9,43 95,43.1 95,43.1 95,43.2 95,43.2 95.1,43.3 95.1,43.3 95.3,43.4 95.4,43.4 
				95.7,43.5 96,43.6 96.4,43.8 96.8,43.9 97,44 97.2,44.1 97.3,44.2 97.5,44.3 97.6,44.5 97.6,44.6 97.7,44.8 97.8,45 97.8,45.1 
				97.8,45.4 97.8,45.5 97.8,45.7 97.7,45.9 97.7,46.1 97.6,46.2 97.5,46.4 97.4,46.5 97.3,46.6 97.2,46.7 97,46.8 96.9,46.9 
				96.7,47 96.5,47 96.3,47.1 96.1,47.1 95.9,47.1 95.7,47.1 95.5,47.1 95.4,47.1 95.2,47 95,46.9 94.9,46.9 94.8,46.8 94.6,46.7 
				94.5,46.6 94.4,46.4 94.3,46.3 94.3,46.1 94.2,45.9 94.1,45.7 94.1,45.6 			"/>
		</g>
		<g>
			<path fill-rule="evenodd" clip-rule="evenodd" fill="#FFFFFF" d="M78.5,59.6L78.5,59.6l0.1,0l0.1,0l0.1,0l0.1,0l0.1,0l0.1-0.1
				l0.1,0l0.1-0.1l0.1-0.1l0.1-0.1l0.1-0.1l0-0.1l0-0.1l0-0.1l0-0.1l0-0.2l0-0.3l0-0.3l0-0.4l-0.1,0.2l-0.1,0.1l-0.1,0.1l-0.2,0.1
				L78.9,58l-0.2,0.1l-0.2,0h-0.1v-0.8l0.1,0l0.1,0l0.1,0l0.1-0.1l0.1-0.1l0.1-0.1l0.1-0.1l0.1-0.1l0.1-0.1l0.1-0.1l0-0.2l0.1-0.2
				l0-0.2l0-0.2l0-0.2v-0.3v-0.2l0-0.2l0-0.2l0-0.2l-0.1-0.2l-0.1-0.2l-0.1-0.1l-0.1-0.1l-0.1-0.1l-0.1-0.1L79,53.5l-0.1-0.1
				l-0.1-0.1l-0.1,0l-0.1,0l-0.1,0v-0.8l0.1,0l0.2,0l0.2,0.1l0.2,0.1l0.2,0.1l0.2,0.1l0.1,0.2l0.1,0.2v-0.7h0.7v4.7v0.3l0,0.3l0,0.2
				l0,0.2l0,0.2l0,0.2l0,0.2l0,0.1l-0.1,0.1l-0.1,0.1L80,59.6l-0.1,0.1l-0.1,0.1l-0.1,0.1l-0.1,0.1L79.5,60l-0.1,0.1l-0.1,0
				l-0.1,0.1l-0.1,0l-0.2,0l-0.1,0l-0.2,0h-0.1V59.6z M76.6,58.6l0.7,0.1l0,0.1l0,0.1l0,0.1l0,0.1l0.1,0.1l0,0.1l0.1,0.1l0.1,0.1
				l0.1,0.1l0.1,0l0.1,0l0.1,0l0.1,0l0.1,0l0.1,0h0.1h0.1v0.8h-0.1l-0.2,0l-0.2,0l-0.2,0l-0.2-0.1l-0.2-0.1l-0.2-0.1L77.2,60
				l-0.1-0.1l-0.1-0.1l-0.1-0.1l-0.1-0.1l-0.1-0.2l0-0.2l0-0.2l0-0.2V58.6L76.6,58.6z M78.5,58.1L78.5,58.1h-0.3l-0.2,0L77.8,58
				l-0.2-0.1l-0.2-0.1l-0.2-0.1l-0.2-0.1l-0.1-0.2l-0.1-0.2L76.8,57l-0.1-0.2l-0.1-0.3l-0.1-0.3l0-0.3l0-0.3v-0.3v-0.2l0-0.2l0-0.2
				l0-0.2l0-0.2l0-0.2l0.1-0.2l0.1-0.2l0.1-0.2l0.1-0.1l0.1-0.1l0.1-0.1l0.1-0.1l0.1-0.1l0.1-0.1l0.1-0.1l0.1-0.1l0.1-0.1l0.1,0
				l0.1,0l0.1,0l0.1,0l0.1,0h0.1h0.1v0.8h0l-0.1,0l-0.1,0l-0.1,0L78,53.4l-0.1,0.1l-0.1,0.1l-0.1,0.1l-0.1,0.1l-0.1,0.1l-0.1,0.1
				l-0.1,0.2l-0.1,0.2l0,0.2l0,0.2l0,0.2l0,0.2l0,0.3l0,0.3l0,0.2l0,0.2l0.1,0.2l0.1,0.2l0.1,0.1l0.1,0.1l0.1,0.1l0.1,0.1l0.1,0.1
				l0.1,0.1l0.1,0.1l0.1,0l0.1,0l0.1,0l0,0V58.1z"/>
			<g>
				<polygon fill-rule="evenodd" clip-rule="evenodd" fill="#FFFFFF" points="67.7,58.1 67.7,50.5 68.9,50.5 70.4,55.9 70.7,57 
					70.7,56.8 70.8,56.5 70.9,56.2 71,55.8 72.5,50.5 73.6,50.5 73.6,58.1 72.8,58.1 72.8,51.8 71,58.1 70.3,58.1 68.5,51.7 
					68.5,58.1 				"/>
				<path fill-rule="evenodd" clip-rule="evenodd" fill="#FFFFFF" d="M74.8,51.6v-1.1h0.8v1.1H74.8L74.8,51.6z M74.8,58.1v-5.5h0.8
					v5.5H74.8z"/>
				<polygon fill-rule="evenodd" clip-rule="evenodd" fill="#FFFFFF" points="81.6,58.1 81.6,52.6 82.2,52.6 82.2,53.5 82.4,53.2 
					82.5,53 82.6,52.8 82.7,52.7 82.9,52.6 83,52.6 83.1,52.5 83.2,52.5 83.3,52.5 83.4,52.5 83.5,52.6 83.6,52.6 83.7,52.6 
					83.8,52.7 83.9,52.7 84,52.8 83.7,53.7 83.6,53.6 83.5,53.5 83.3,53.5 83.2,53.5 83.1,53.5 83,53.5 82.9,53.6 82.8,53.6 
					82.7,53.7 82.6,53.8 82.5,54 82.5,54.1 82.4,54.4 82.4,54.7 82.3,54.9 82.3,55.2 82.3,58.1 				"/>
				<path fill-rule="evenodd" clip-rule="evenodd" fill="#FFFFFF" d="M87.4,57.4l-0.2,0.2L87,57.8l-0.2,0.1L86.6,58l-0.2,0.1
					l-0.2,0.1l0,0v-0.7l0,0l0.1,0l0.1,0l0.1,0l0.1-0.1l0.1-0.1l0.1-0.1l0.1,0l0.1-0.1l0.1-0.1L87,57l0.1-0.1l0.1-0.1l0-0.1l0-0.1
					l0-0.1l0-0.1l0-0.1l0-0.3l0-0.3v-0.3l-0.2,0.1l-0.3,0.1l-0.3,0.1l-0.3,0.1v-0.8l0.2,0l0.4-0.1l0.3-0.1l0.3-0.1v-0.3v-0.1l0-0.1
					l0-0.1l0-0.1l0-0.1l0-0.1l0-0.1l0-0.1l-0.1-0.1L87,53.5l-0.1,0l-0.1,0l-0.1,0l-0.1,0l-0.1,0l-0.2,0l-0.1,0v-0.8h0.2h0.2l0.2,0
					l0.2,0l0.1,0l0.1,0l0.1,0l0.1,0.1l0.1,0.1l0.1,0.1l0.1,0.1l0.1,0.1l0.1,0.1l0.1,0.1l0,0.1l0,0.1l0,0.1l0,0.2l0,0.3l0,0.3v0.4
					v1.2v0.6l0,0.5l0,0.4l0,0.2l0,0.2l0,0.2l0.1,0.2l0.1,0.2h-0.8L87.5,58l0-0.2l0-0.2L87.4,57.4z M86.2,58.2l-0.2,0l-0.2,0h-0.2
					l-0.2,0l-0.2,0l-0.1,0L85,58.1L84.8,58l-0.1-0.1l-0.1-0.1l-0.1-0.1l-0.1-0.1l-0.1-0.1l-0.1-0.1l0-0.1l0-0.2l0-0.2l0-0.2l0-0.2
					l0-0.2l0-0.1l0-0.1l0-0.1l0-0.1l0.1-0.2l0.1-0.2l0.1-0.1l0.1-0.1l0.1-0.1l0.1,0l0.1-0.1l0.1,0l0.1,0l0.1-0.1l0.3-0.1l0.3-0.1
					l0.2,0v0.8l-0.1,0l-0.2,0l-0.2,0l-0.2,0l-0.1,0.1L85.3,56L85.2,56l-0.1,0.1l-0.1,0.1l0,0.1l0,0.1l0,0.1v0.1v0.1l0,0.1l0,0.1
					l0,0.1l0,0.1l0,0.1l0.1,0.1l0.1,0.1l0.1,0.1l0.1,0l0.1,0l0.1,0l0.1,0l0.1,0l0.1,0l0.1,0l0.1,0h0.1l0,0V58.2L86.2,58.2z
					 M86.2,53.3L86.2,53.3H86l-0.1,0l-0.1,0l-0.1,0l-0.1,0l-0.1,0l-0.1,0.1l-0.1,0.1l-0.1,0.1l-0.1,0.1l-0.1,0.1l0,0.1L85.1,54
					l0,0.1l0,0.2l-0.8-0.1l0.1-0.2l0.1-0.2l0.1-0.2l0.1-0.2l0.1-0.2l0.1-0.1l0.1-0.1l0.1-0.1l0.1-0.1l0.1-0.1l0.2-0.1l0.2-0.1l0.2,0
					l0.2,0l0.2,0h0V53.3z"/>
				<polygon fill-rule="evenodd" clip-rule="evenodd" fill="#FFFFFF" points="92.2,56.1 93,56.2 92.9,56.5 92.9,56.7 92.8,56.9 
					92.8,57.1 92.7,57.3 92.6,57.4 92.4,57.6 92.3,57.7 92.2,57.8 92.1,57.9 91.9,58 91.8,58.1 91.6,58.2 91.4,58.2 91.3,58.2 
					91.1,58.2 90.9,58.2 90.7,58.2 90.5,58.1 90.3,58.1 90.1,58 89.9,57.8 89.8,57.7 89.6,57.5 89.6,57.4 89.5,57.3 89.4,57.2 
					89.4,57.1 89.3,56.9 89.2,56.6 89.1,56.3 89.1,56 89.1,55.7 89.1,55.4 89.1,55 89.1,54.7 89.1,54.4 89.2,54.1 89.3,53.9 
					89.4,53.6 89.4,53.5 89.5,53.4 89.6,53.3 89.6,53.2 89.8,53.1 89.9,52.9 90.1,52.8 90.3,52.7 90.5,52.6 90.7,52.6 90.9,52.5 
					91.1,52.5 91.3,52.5 91.4,52.5 91.6,52.6 91.8,52.6 91.9,52.7 92,52.7 92.2,52.8 92.3,52.9 92.4,53.1 92.5,53.2 92.6,53.3 
					92.7,53.5 92.8,53.7 92.8,53.8 92.9,54 92.9,54.2 92.2,54.4 92.1,54.2 92.1,54.1 92.1,54 92,53.9 92,53.8 91.9,53.7 91.9,53.6 
					91.8,53.6 91.7,53.5 91.6,53.4 91.6,53.4 91.5,53.3 91.4,53.3 91.3,53.3 91.2,53.3 91.1,53.3 91,53.3 90.9,53.3 90.7,53.3 
					90.6,53.4 90.5,53.5 90.4,53.6 90.3,53.7 90.2,53.8 90.1,53.9 90,54.1 90,54.2 89.9,54.4 89.9,54.6 89.9,54.8 89.8,55.1 
					89.8,55.3 89.8,55.6 89.9,55.9 89.9,56.1 89.9,56.3 90,56.5 90,56.7 90.1,56.8 90.2,57 90.3,57.1 90.4,57.2 90.5,57.3 
					90.6,57.3 90.7,57.4 90.8,57.4 91,57.5 91.1,57.5 91.2,57.5 91.3,57.4 91.4,57.4 91.5,57.4 91.6,57.3 91.7,57.3 91.8,57.2 
					91.8,57.1 91.9,57.1 92,56.9 92,56.8 92.1,56.7 92.1,56.6 92.2,56.4 92.2,56.3 				"/>
				<path fill-rule="evenodd" clip-rule="evenodd" fill="#FFFFFF" d="M93.6,51.6v-1.1h0.8v1.1H93.6L93.6,51.6z M93.6,58.1v-5.5h0.8
					v5.5H93.6z"/>
				<path fill-rule="evenodd" clip-rule="evenodd" fill="#FFFFFF" d="M97.4,52.5h0.2l0.2,0l0.2,0l0.2,0.1l0.2,0.1l0.2,0.1l0.2,0.1
					l0.2,0.2l0.1,0.1l0.1,0.1l0.1,0.1l0.1,0.1l0.1,0.2l0.1,0.3l0.1,0.3l0,0.3l0,0.3l0,0.3l0,0.4l0,0.3l0,0.3l-0.1,0.3l-0.1,0.3
					l-0.1,0.2l-0.1,0.1L99,57.3L99,57.4l-0.1,0.1l-0.2,0.2l-0.2,0.1L98.4,58l-0.2,0.1L98,58.1l-0.2,0.1l-0.2,0l-0.2,0v-0.8h0l0.1,0
					l0.1,0l0.1,0l0.1-0.1l0.1-0.1l0.1-0.1l0.1-0.1l0.1-0.1l0.1-0.1l0.1-0.1l0.1-0.2l0.1-0.2l0-0.2l0-0.2l0-0.2l0-0.3l0-0.3l0-0.2
					l0-0.2l0-0.2l-0.1-0.2l-0.1-0.2l-0.1-0.2l-0.1-0.1l-0.1-0.1l-0.1-0.1L98,53.5l-0.1-0.1l-0.1-0.1l-0.1,0l-0.1,0l-0.1,0V52.5z
					 M95.3,55.4l0-0.3l0-0.3l0.1-0.3l0.1-0.3l0.1-0.3l0.1-0.2l0-0.1l0.1-0.1l0.1-0.1l0.1-0.1l0.1-0.2l0.2-0.1l0.2-0.1l0.2-0.1
					l0.2-0.1l0.2,0l0.2,0h0.2v0.8h0l-0.1,0l-0.1,0l-0.1,0l-0.1,0.1l-0.1,0.1l-0.1,0.1l-0.1,0.1l-0.1,0.1l-0.1,0.1l-0.1,0.2l-0.1,0.2
					l-0.1,0.2l0,0.2l0,0.2l0,0.2v0.3v0.3l0,0.2l0,0.2l0,0.2l0.1,0.2l0.1,0.2l0.1,0.2l0.1,0.1l0.1,0.1l0.1,0.1l0.1,0.1l0.1,0.1
					l0.1,0.1l0.1,0l0.1,0l0.1,0v0.8l-0.2,0l-0.2,0l-0.2-0.1l-0.2-0.1L96.4,58l-0.2-0.1L96,57.7l-0.2-0.2l-0.1-0.1l-0.1-0.1l-0.1-0.1
					l0-0.1l-0.1-0.2l-0.1-0.3l-0.1-0.3L95.3,56l0-0.3L95.3,55.4z"/>
				<polygon fill-rule="evenodd" clip-rule="evenodd" fill="#FFFFFF" points="100.4,58.1 100.4,52.6 101.1,52.6 101.1,53.4 
					101.1,53.3 101.2,53.2 101.3,53.1 101.3,53 101.4,52.9 101.5,52.9 101.6,52.8 101.7,52.7 101.8,52.7 101.9,52.6 102,52.6 
					102.1,52.6 102.2,52.5 102.3,52.5 102.4,52.5 102.5,52.5 102.7,52.5 102.8,52.5 103,52.6 103.2,52.7 103.3,52.7 103.4,52.8 
					103.6,52.9 103.7,53 103.7,53.1 103.8,53.3 103.9,53.4 103.9,53.6 104,53.8 104,54.1 104,54.4 104,54.7 104,58.1 103.3,58.1 
					103.3,54.8 103.3,54.5 103.2,54.3 103.2,54.1 103.2,53.9 103.1,53.8 103,53.7 102.9,53.6 102.8,53.5 102.7,53.4 102.6,53.4 
					102.5,53.3 102.3,53.3 102.2,53.3 102.1,53.3 102,53.4 101.8,53.4 101.7,53.5 101.6,53.5 101.5,53.6 101.5,53.7 101.4,53.8 
					101.3,54 101.3,54.1 101.2,54.3 101.2,54.4 101.1,54.7 101.1,54.9 101.1,55.1 101.1,58.1 				"/>
				<path fill-rule="evenodd" clip-rule="evenodd" fill="#FFFFFF" d="M108.3,56.3l0.8,0.1l0,0.2l-0.1,0.2l-0.1,0.2l-0.1,0.2
					l-0.1,0.2l-0.1,0.1l-0.1,0.1l-0.1,0.1l-0.1,0.1l-0.1,0.1l-0.1,0.1l-0.2,0.1l-0.2,0l-0.2,0l-0.2,0h-0.2H107v-0.8l0.1,0l0.1,0
					l0.1,0l0.1,0l0.1,0l0.1,0l0.1,0l0.1-0.1l0.1-0.1l0.1-0.1L108,57l0.1-0.1l0.1-0.1l0.1-0.1l0-0.1l0.1-0.1L108.3,56.3L108.3,56.3z
					 M107,52.5L107,52.5l0.2,0l0.2,0l0.2,0.1l0.2,0.1l0.2,0.1l0.2,0.1l0.2,0.1l0.2,0.2l0.1,0.2l0.1,0.2l0.1,0.2l0.1,0.3l0.1,0.3
					l0,0.3l0,0.3v0.3v0.3H107v-0.8h1.3l0-0.2l0-0.2l0-0.1l0-0.1l0-0.1l0-0.1l-0.1-0.1l-0.1-0.1l-0.1-0.1l-0.1-0.1l-0.1-0.1l-0.1-0.1
					l-0.1-0.1l-0.1,0l-0.1,0h-0.1h0V52.5z M107,58.2l-0.2,0l-0.2,0l-0.2-0.1l-0.2-0.1L106,58l-0.2-0.1l-0.2-0.1l-0.2-0.2l-0.1-0.1
					l-0.1-0.1l-0.1-0.1l-0.1-0.1l-0.1-0.2l-0.1-0.3l-0.1-0.3l-0.1-0.3l0-0.3v-0.3v-0.3l0-0.3l0.1-0.3l0.1-0.3l0.1-0.3l0.1-0.2
					l0.1-0.1l0.1-0.1l0.1-0.1l0.1-0.1l0.2-0.2l0.2-0.1l0.2-0.1l0.2-0.1l0.2-0.1l0.2-0.1l0.2,0l0.2,0v0.8h-0.1l-0.1,0l-0.1,0
					l-0.1,0.1l-0.1,0.1l-0.1,0.1l-0.1,0.1l-0.1,0.1l-0.1,0.1l-0.1,0.1l-0.1,0.1l-0.1,0.1l-0.1,0.2l0,0.2l0,0.2l0,0.2h1.3v0.8h-1.3
					l0,0.2l0,0.2l0,0.2l0,0.2l0.1,0.2l0.1,0.2l0.1,0.1l0.1,0.1l0.1,0.1l0.1,0.1l0.1,0.1l0.1,0.1l0.1,0.1l0.1,0l0.1,0h0.1V58.2z"/>
				<polygon fill-rule="evenodd" clip-rule="evenodd" fill="#FFFFFF" points="109.7,56.5 110.5,56.3 110.5,56.5 110.5,56.6 
					110.6,56.7 110.6,56.8 110.7,56.9 110.7,57 110.8,57.1 110.9,57.2 110.9,57.3 111,57.3 111.1,57.4 111.2,57.4 111.3,57.4 
					111.4,57.4 111.5,57.5 111.7,57.5 111.8,57.5 111.9,57.5 112,57.4 112.1,57.4 112.2,57.4 112.3,57.3 112.3,57.3 112.4,57.2 
					112.5,57.2 112.5,57.1 112.6,57 112.6,56.9 112.7,56.9 112.7,56.8 112.7,56.7 112.7,56.6 112.7,56.5 112.7,56.4 112.7,56.4 
					112.6,56.3 112.6,56.3 112.6,56.2 112.5,56.1 112.5,56.1 112.3,56 112.2,56 112,55.9 111.7,55.8 111.3,55.7 110.9,55.5 
					110.7,55.4 110.5,55.3 110.3,55.2 110.2,55.1 110.1,55 110,54.8 110,54.6 109.9,54.5 109.9,54.3 109.9,54.1 109.9,53.9 
					109.9,53.7 109.9,53.6 110,53.4 110.1,53.3 110.1,53.2 110.2,53.1 110.3,52.9 110.4,52.8 110.6,52.7 110.7,52.7 110.8,52.6 
					111,52.6 111.2,52.5 111.4,52.5 111.6,52.5 111.8,52.5 112,52.6 112.2,52.6 112.4,52.7 112.6,52.8 112.8,52.9 112.8,53 
					112.9,53 113,53.1 113,53.2 113.1,53.2 113.1,53.3 113.2,53.4 113.2,53.6 113.3,53.8 113.3,54.1 112.6,54.2 112.5,54.1 
					112.5,54 112.5,53.9 112.5,53.8 112.4,53.7 112.4,53.6 112.3,53.6 112.3,53.5 112.2,53.4 112.1,53.4 112,53.4 112,53.3 
					111.9,53.3 111.8,53.3 111.7,53.3 111.6,53.3 111.5,53.3 111.3,53.3 111.2,53.3 111.2,53.3 111.1,53.4 111,53.4 110.9,53.4 
					110.8,53.5 110.8,53.5 110.7,53.6 110.7,53.6 110.7,53.7 110.6,53.8 110.6,53.8 110.6,53.9 110.6,54 110.6,54.1 110.6,54.1 
					110.6,54.2 110.7,54.2 110.7,54.3 110.7,54.4 110.8,54.4 110.8,54.4 110.9,54.5 111.1,54.6 111.3,54.7 111.7,54.8 112.1,54.9 
					112.4,55.1 112.7,55.2 112.9,55.3 113,55.4 113.1,55.5 113.2,55.6 113.3,55.8 113.4,55.9 113.4,56.1 113.5,56.3 113.5,56.5 
					113.5,56.7 113.4,56.9 113.4,57 113.3,57.2 113.3,57.4 113.2,57.5 113.1,57.6 113,57.8 112.8,57.9 112.7,58 112.5,58.1 
					112.4,58.1 112.2,58.2 112,58.2 111.8,58.2 111.6,58.2 111.4,58.2 111.2,58.2 111.1,58.2 110.9,58.1 110.7,58.1 110.6,58 
					110.5,57.9 110.3,57.8 110.2,57.7 110.1,57.6 110,57.4 110,57.3 109.9,57.1 109.8,56.9 109.8,56.7 				"/>
			</g>
		</g>
	</g>
</g>
<g id="Layer_1">
</g>
</svg>
