<?xml version="1.0" encoding="utf-8"?>
<!-- Generator: Adobe Illustrator 18.0.0, SVG Export Plug-In . SVG Version: 6.00 Build 0)  -->
<!DOCTYPE svg PUBLIC "-//W3C//DTD SVG 1.1//EN" "http://www.w3.org/Graphics/SVG/1.1/DTD/svg11.dtd">
<svg version="1.1" xmlns="http://www.w3.org/2000/svg" xmlns:xlink="http://www.w3.org/1999/xlink" x="0px" y="0px"
	 viewBox="0 0 133 101.3" enable-background="new 0 0 133 101.3" xml:space="preserve">
<g id="Fondo">
</g>
<g id="Logo">
</g>
<g id="Layer_4">
	<rect x="0" y="-0.2" fill="#FAC70A" width="133" height="101.5"/>
	<path fill="#FFFFFF" d="M66.5,65.2c-6.2,0-11.3,5.1-11.3,11.3c0,6.2,5.1,11.3,11.3,11.3c6.2,0,11.3-5.1,11.3-11.3
		C77.8,70.3,72.8,65.2,66.5,65.2 M69.6,76.7L64.2,81c-0.1,0.1-0.2,0.1-0.4,0.1c-0.2,0-0.3-0.1-0.4-0.2c-0.2-0.2-0.2-0.6,0.1-0.8
		l4.8-3.9l-4.8-3.5c-0.3-0.2-0.3-0.5-0.1-0.8c0.2-0.3,0.5-0.3,0.8-0.1l5.4,4c0.1,0.1,0.2,0.3,0.2,0.4C69.8,76.5,69.7,76.6,69.6,76.7
		"/>
	<g>
		<path fill="#FFFFFF" d="M68,14.9c-10.7,0-19.4,8.7-19.4,19.4c0,10.7,8.7,19.4,19.4,19.4c10.7,0,19.4-8.7,19.4-19.4
			C87.4,23.6,78.7,14.9,68,14.9 M79.5,29.8c-1.1,2.5-4.5,10.4-6.7,15.6c0,0-0.6,0-0.6,0L68.6,37c-1.4,2.8-3,5.6-4.3,8.4
			c0,0-0.6,0-0.6,0c-2-4.8-4.2-9.5-6.2-14.3c-0.5-1.2-2.1-3-3.3-3c0-0.1,0-0.4,0-0.6h7l0,0.6c-0.8,0-2.3,0.6-1.9,1.5
			c1,2.1,4.5,10.4,5.4,12.5c0.7-1.3,2.5-4.7,3.3-6.2c-0.6-1.2-2.6-5.8-3.2-6.9c-0.4-0.7-1.6-0.8-2.4-0.9c0-0.2,0-0.3,0-0.6l6.2,0
			v0.6c-0.8,0-1.6,0.3-1.3,1.1c0.8,1.7,1.3,3,2.1,4.6c0.2-0.5,1.5-3,2.1-4.4c0.4-0.9-0.2-1.2-1.7-1.3c0-0.1,0-0.4,0-0.6l5.3,0l0,0.6
			c-1,0-2,0.6-2.5,1.4L70,34.8c0.3,0.7,2.8,6.2,3,6.8l5.3-12.3c-0.4-1-1.6-1.2-2.1-1.2c0-0.2,0-0.4,0-0.6l5.5,0l0,0l0,0.6
			C80.7,28.1,79.9,28.8,79.5,29.8"/>
	</g>
</g>
<g id="Layer_1">
</g>
</svg>
