<?xml version="1.0" encoding="utf-8"?>
<!-- Generator: Adobe Illustrator 18.0.0, SVG Export Plug-In . SVG Version: 6.00 Build 0)  -->
<!DOCTYPE svg PUBLIC "-//W3C//DTD SVG 1.1//EN" "http://www.w3.org/Graphics/SVG/1.1/DTD/svg11.dtd">
<svg version="1.1" xmlns="http://www.w3.org/2000/svg" xmlns:xlink="http://www.w3.org/1999/xlink" x="0px" y="0px"
	 viewBox="0 0 133 101.3" enable-background="new 0 0 133 101.3" xml:space="preserve">
<g id="Fondo">
</g>
<g id="Logo">
</g>
<g id="Layer_4">
	<g>
		<rect x="0.2" y="-0.2" fill="#2B3077" width="133" height="101.5"/>
		<path fill="#FFFFFF" d="M66.8,65.2c-6.2,0-11.3,5.1-11.3,11.3c0,6.2,5.1,11.3,11.3,11.3C73,87.8,78,82.7,78,76.5
			C78,70.3,73,65.2,66.8,65.2 M69.8,76.7L64.4,81c-0.1,0.1-0.2,0.1-0.4,0.1c-0.2,0-0.3-0.1-0.4-0.2c-0.2-0.2-0.2-0.6,0.1-0.8
			l4.8-3.9l-4.8-3.5c-0.3-0.2-0.3-0.5-0.1-0.8c0.2-0.3,0.5-0.3,0.8-0.1l5.4,4c0.1,0.1,0.2,0.3,0.2,0.4C70,76.5,70,76.6,69.8,76.7"/>
	</g>
	<g>
		<path fill="#FFFFFF" d="M125.7,39.2c-0.9-1-2.2-1.5-3.8-1.5c-1.6,0-2.9,0.5-3.8,1.5c-0.8,0.9-1.3,2.1-1.3,3.6
			c0,1.5,0.4,2.7,1.3,3.6c0.9,1,2.2,1.5,3.7,1.5c1.6,0,2.8-0.5,3.7-1.5c0.9-0.9,1.3-2.1,1.3-3.6C127,41.4,126.6,40.1,125.7,39.2
			 M122.9,45.2c-0.2,0.5-0.5,0.8-1,0.8c-0.9,0-1.4-1-1.4-3.1c0-2.1,0.4-3.1,1.4-3.1c0.8,0,1.2,1,1.2,3.1
			C123.2,43.9,123.1,44.7,122.9,45.2"/>
		<rect x="112.1" y="35.3" fill="#FFFFFF" width="3.7" height="1.5"/>
		<rect x="112.1" y="38" fill="#FFFFFF" width="3.7" height="9.7"/>
		<path fill="#FFFFFF" d="M107,35.3v2.5c-2.5,0.3-4.3,1-5.5,2.1c-1,1-1.6,2.1-1.5,3.4c0,1.6,0.6,2.7,1.6,3.4c1.1,0.7,2.8,1,5.1,1
			h3.9V35.3H107z M104.8,45.4c-0.7-0.4-1-1-1-2c0-0.8,0.3-1.6,0.9-2.3c0.6-0.7,1.4-1,2.3-1v5.7C106,45.7,105.2,45.6,104.8,45.4"/>
		<path fill="#FFFFFF" d="M67.1,38h-3.8v6.9c0,0.9,0.4,1.6,1.3,2.2c0.9,0.6,2.2,0.9,3.8,0.9c1.4,0,2.6-0.2,3.4-0.7l1.6,0.5V38h-3.7
			v6.4c0,0.9-0.5,1.4-1.4,1.4c-0.8,0-1.2-0.5-1.2-1.4V38z"/>
		<path fill="#FFFFFF" d="M61.4,38.1c-1-0.2-1.8-0.3-2.6-0.3c-1.5,0-2.7,0.3-3.5,0.8c-0.7,0.4-1.1,1-1.2,1.7c0,0.8,0.5,1.5,1.5,2.1
			l2.5,1.2c0.6,0.3,0.8,0.7,0.8,1.1c0,0.8-0.7,1.3-2.1,1.3c-1.1,0-1.9-0.1-2.7-0.4l-0.1,2c1.2,0.3,2.3,0.4,3.5,0.4
			c1.6,0,2.8-0.3,3.7-0.8c0.9-0.6,1.3-1.4,1.3-2.4c0-0.7-0.2-1.3-0.7-1.7c-0.3-0.3-0.8-0.6-1.5-0.9l-1.4-0.6c-0.6-0.3-0.9-0.6-0.9-1
			c0-0.5,0.6-0.7,1.7-0.7l1.8,0.2L61.4,38.1z"/>
		<rect x="48.9" y="35.3" fill="#FFFFFF" width="3.8" height="12.5"/>
		<path fill="#FFFFFF" d="M46.7,39.2c-0.9-1-2.2-1.5-3.8-1.5c-1.6,0-2.9,0.5-3.8,1.5c-0.8,0.9-1.3,2.1-1.3,3.6
			c0,1.5,0.4,2.7,1.3,3.6c0.9,1,2.2,1.5,3.7,1.5c1.6,0,2.8-0.5,3.7-1.5c0.9-0.9,1.3-2.1,1.3-3.6C48,41.4,47.6,40.2,46.7,39.2
			 M44.2,42.9c0,1.1-0.1,1.8-0.3,2.3c-0.2,0.5-0.5,0.8-1,0.8c-0.9,0-1.4-1-1.4-3.1c0-2.1,0.5-3.1,1.4-3.1
			C43.8,39.7,44.2,40.8,44.2,42.9"/>
		<rect x="95.2" y="35.3" fill="#FFFFFF" width="3.7" height="1.5"/>
		<rect x="95.2" y="38" fill="#FFFFFF" width="3.7" height="9.7"/>
		<path fill="#FFFFFF" d="M90.5,37.8c-1.5,0-2.7,0.3-3.5,0.8c-0.7,0.5-1.1,1-1.2,1.7c0,0.8,0.5,1.5,1.5,2.1l2.5,1.2
			c0.6,0.3,0.8,0.7,0.8,1.1c0,0.8-0.7,1.3-2.1,1.3c-1.1,0-1.9-0.1-2.7-0.4l-0.1,2c1.2,0.3,2.3,0.4,3.5,0.4c1.6,0,2.8-0.3,3.7-0.8
			c0.9-0.6,1.3-1.4,1.3-2.4c0-0.7-0.2-1.3-0.7-1.7c-0.3-0.3-0.8-0.6-1.5-0.9l-1.4-0.6c-0.6-0.3-0.9-0.6-0.9-1c0-0.5,0.6-0.7,1.7-0.7
			c0.6,0,1.2,0.1,1.8,0.2L93,38.1C92.1,37.9,91.2,37.8,90.5,37.8"/>
		<path fill="#FFFFFF" d="M78.2,37.8v-2.5h-3.7v12.5h3.9c2.3,0,4-0.3,5.1-1c1.1-0.7,1.6-1.8,1.7-3.4c0-1.3-0.5-2.5-1.5-3.4
			C82.5,38.8,80.7,38.1,78.2,37.8 M78.2,45.7v-5.7c0.9,0,1.6,0.3,2.3,1c0.6,0.7,1,1.4,1,2.3c0,1-0.3,1.7-1,2
			C80,45.6,79.2,45.7,78.2,45.7"/>
		<polygon fill="#FFFFFF" points="29.6,28.9 18.7,28.9 18.7,39.8 		"/>
		<path fill="#FFFFFF" d="M37.1,37.4v-2.3c-2.5,0.1-4.5,0.7-6.1,1.8c-1.6,1.2-2.5,2.7-2.5,4.6c0,2.1,0.9,3.7,2.8,4.8
			c1.6,1,3.5,1.5,5.8,1.6v-2.4c-1.1-0.2-2-0.5-2.9-1c-1.2-0.8-1.8-1.8-1.8-3c0-1.2,0.5-2.1,1.6-2.9C34.9,38,36,37.6,37.1,37.4"/>
		<polygon fill="#FFFFFF" points="13.2,34.2 18,34.2 18,29.4 		"/>
		<rect x="12.7" y="34.9" fill="#FFFFFF" width="5.4" height="5.3"/>
		<polygon fill="#FFFFFF" points="18,40.9 13.2,40.9 18,45.8 		"/>
		<polygon fill="#FFFFFF" points="12.7,41.4 12.7,46.4 18,51.8 18,46.7 		"/>
		<polygon fill="#FFFFFF" points="12,45.8 12,35.4 6.8,40.6 		"/>
		<polygon fill="#FFFFFF" points="29.6,52.3 18.7,41.4 18.7,52.3 		"/>
	</g>
</g>
<g id="Layer_1">
</g>
</svg>
