<?xml version="1.0" encoding="utf-8"?>
<!-- Generator: Adobe Illustrator 18.0.0, SVG Export Plug-In . SVG Version: 6.00 Build 0)  -->
<!DOCTYPE svg PUBLIC "-//W3C//DTD SVG 1.1//EN" "http://www.w3.org/Graphics/SVG/1.1/DTD/svg11.dtd">
<svg version="1.1" xmlns="http://www.w3.org/2000/svg" xmlns:xlink="http://www.w3.org/1999/xlink" x="0px" y="0px"
	 viewBox="0 0 133 101.3" enable-background="new 0 0 133 101.3" xml:space="preserve">
<g id="Fondo">
</g>
<g id="Logo">
</g>
<g id="Layer_4">
	<g>
		<rect x="0" y="-0.2" fill="#E73A48" width="133" height="101.5"/>
		<path fill="#FFFFFF" d="M66.5,65.2c-6.2,0-11.3,5.1-11.3,11.3s5.1,11.3,11.3,11.3c6.2,0,11.3-5.1,11.3-11.3S72.8,65.2,66.5,65.2
			 M69.6,76.7L64.2,81c-0.1,0.1-0.2,0.1-0.4,0.1c-0.2,0-0.3-0.1-0.4-0.2c-0.2-0.2-0.2-0.6,0.1-0.8l4.8-3.9l-4.8-3.5
			c-0.3-0.2-0.3-0.5-0.1-0.8c0.2-0.3,0.5-0.3,0.8-0.1l5.4,4c0.1,0.1,0.2,0.3,0.2,0.4C69.8,76.5,69.7,76.6,69.6,76.7"/>
	</g>
	<g>
		<g opacity="0.9">
			<path fill="#FFFFFF" d="M17.6,49.2c-0.4,0-0.7-0.1-1.1-0.3c-1.1-0.6-1.6-2-1-3.1l10.3-20.3c0.6-1.1,2-1.6,3.1-1
				c1.1,0.6,1.6,2,1,3.1L19.7,47.9C19.3,48.8,18.4,49.2,17.6,49.2z"/>
		</g>
		<g opacity="0.7">
			<path fill="#FFFFFF" d="M38.2,49.2c-0.8,0-1.7-0.5-2.1-1.3L25.8,27.7c-0.6-1.1-0.1-2.5,1-3.1c1.1-0.6,2.5-0.1,3.1,1l10.3,20.3
				c0.6,1.1,0.1,2.5-1,3.1C38.9,49.1,38.5,49.2,38.2,49.2z"/>
		</g>
		<g opacity="0.8">
			<path fill="#FFFFFF" d="M35.9,44.7h-16c-1.3,0-2.3-1-2.3-2.3c0-1.3,1-2.3,2.3-2.3h16c1.3,0,2.3,1,2.3,2.3
				C38.2,43.7,37.2,44.7,35.9,44.7z"/>
		</g>
		<g opacity="0.9">
			<path fill="#FFFFFF" d="M94.9,49.2c-0.4,0-0.7-0.1-1.1-0.3c-1.1-0.6-1.6-2-1-3.1l10.3-20.3c0.6-1.1,2-1.6,3.1-1
				c1.1,0.6,1.6,2,1,3.1L97,47.9C96.5,48.8,95.7,49.2,94.9,49.2z"/>
		</g>
		<g opacity="0.6">
			<path fill="#FFFFFF" d="M115.5,49.2c-0.8,0-1.7-0.5-2.1-1.3l-10.3-20.3c-0.6-1.1-0.1-2.5,1-3.1c1.1-0.6,2.5-0.1,3.1,1l10.3,20.3
				c0.6,1.1,0.1,2.5-1,3.1C116.2,49.1,115.8,49.2,115.5,49.2z"/>
		</g>
		<g opacity="0.8">
			<path fill="#FFFFFF" d="M113.2,44.7h-16c-1.3,0-2.3-1-2.3-2.3c0-1.3,1-2.3,2.3-2.3h16c1.3,0,2.3,1,2.3,2.3
				C115.5,43.7,114.5,44.7,113.2,44.7z"/>
		</g>
		<g opacity="0.9">
			<path fill="#FFFFFF" d="M70.3,49.4c-1.3,0-2.3-1-2.3-2.3V26.8c0-1.3,1-2.3,2.3-2.3c1.3,0,2.3,1,2.3,2.3V47
				C72.6,48.3,71.5,49.4,70.3,49.4z"/>
		</g>
		<g opacity="0.8">
			<path fill="#FFFFFF" d="M79.4,29.1h-9.2c-1.3,0-2.3-1-2.3-2.3s1-2.3,2.3-2.3h9.2c1.3,0,2.3,1,2.3,2.3S80.7,29.1,79.4,29.1z"/>
		</g>
		<g opacity="0.8">
			<path fill="#FFFFFF" d="M79.4,49.4h-9.2c-1.3,0-2.3-1-2.3-2.3c0-1.3,1-2.3,2.3-2.3h9.2c1.3,0,2.3,1,2.3,2.3
				C81.8,48.3,80.7,49.4,79.4,49.4z"/>
		</g>
		<g opacity="0.6">
			<path fill="#FFFFFF" d="M88.8,39.2c-1.3,0-2.3-1-2.3-2.3c0-4.5-3-7.8-7.1-7.8c-1.3,0-2.3-1-2.3-2.3s1-2.3,2.3-2.3
				c6.7,0,11.8,5.4,11.8,12.5C91.1,38.2,90.1,39.2,88.8,39.2z"/>
		</g>
		<g opacity="0.7">
			<path fill="#FFFFFF" d="M79.3,49.4c-1.3,0-2.3-1-2.3-2.3c0-1.3,1-2.3,2.3-2.3c4.1,0,7.1-3.3,7.1-7.8c0-1.3,1-2.3,2.3-2.3
				c1.3,0,2.3,1,2.3,2.3C91.1,44,86,49.4,79.3,49.4z"/>
		</g>
		<g opacity="0.9">
			<path fill="#FFFFFF" d="M61.8,49.4c-0.7,0-1.3-0.3-1.8-0.8L42.8,28.3c-0.8-1-0.7-2.4,0.3-3.3c1-0.8,2.4-0.7,3.3,0.3l17.2,20.3
				c0.8,1,0.7,2.4-0.3,3.3C62.9,49.2,62.3,49.4,61.8,49.4z"/>
		</g>
		<g opacity="0.7">
			<path fill="#FFFFFF" d="M61.8,49.4c-1.3,0-2.3-1-2.3-2.3V26.8c0-1.3,1-2.3,2.3-2.3c1.3,0,2.3,1,2.3,2.3V47
				C64.1,48.3,63.1,49.4,61.8,49.4z"/>
		</g>
		<g opacity="0.9">
			<path fill="#FFFFFF" d="M44.6,49.4c-1.3,0-2.3-1-2.3-2.3V26.8c0-1.3,1-2.3,2.3-2.3c1.3,0,2.3,1,2.3,2.3V47
				C46.9,48.3,45.9,49.4,44.6,49.4z"/>
		</g>
	</g>
</g>
<g id="Layer_1">
</g>
</svg>
