<?xml version="1.0" encoding="utf-8"?>
<!-- Generator: Adobe Illustrator 18.0.0, SVG Export Plug-In . SVG Version: 6.00 Build 0)  -->
<!DOCTYPE svg PUBLIC "-//W3C//DTD SVG 1.1//EN" "http://www.w3.org/Graphics/SVG/1.1/DTD/svg11.dtd">
<svg version="1.1" xmlns="http://www.w3.org/2000/svg" xmlns:xlink="http://www.w3.org/1999/xlink" x="0px" y="0px"
	 viewBox="0 0 133 101.3" enable-background="new 0 0 133 101.3" xml:space="preserve">
<g id="Fondo">
</g>
<g id="Logo">
</g>
<g id="Layer_4">
	<g>
		<rect x="0" y="-0.1" fill="#FAC70A" width="133" height="101.5"/>
		<path fill="#FFFFFF" d="M66.5,65.3c-6.2,0-11.3,5.1-11.3,11.3s5.1,11.3,11.3,11.3c6.2,0,11.3-5.1,11.3-11.3S72.8,65.3,66.5,65.3
			 M69.6,76.8l-5.4,4.3c-0.1,0.1-0.2,0.1-0.4,0.1c-0.2,0-0.3-0.1-0.4-0.2c-0.2-0.2-0.2-0.6,0.1-0.8l4.8-3.9l-4.8-3.5
			c-0.3-0.2-0.3-0.5-0.1-0.8c0.2-0.3,0.5-0.3,0.8-0.1l5.4,4c0.1,0.1,0.2,0.3,0.2,0.4C69.8,76.5,69.7,76.7,69.6,76.8"/>
	</g>
	<g>
		<path fill="#FFFFFF" d="M11.1,50.9c0,0,8.5-10.8,7.7-11.2s-9.3,9.7-9.3,9.7s-8.8-19,20.5-23.1C29.9,26.3,32.7,52.6,11.1,50.9"/>
		<path fill="#FFFFFF" d="M69.1,26.1h-5.4l-8.1,22.6l-5.7-10.6l6.9-12h-6l-5.2,9.1h-2.5c0,0,0-6.3,0-7.1c0-0.8-0.2-1.9-1.5-1.9
			c-1.4,0-4.1,0-4.1,0v24.9h5.7V39.8h2.4l4.4,9.1c0,0,0.7,2.3,2,2.3H59c0,0,1.4-0.4,2-2.2c0.6-1.8,1.6-4.6,1.6-4.6h7.6l1.6,4.9
			c0,0,0.6,1.7,1.4,1.7c0.9,0,4.7-0.1,4.7-0.1L69.1,26.1z M64.1,39.8l2.2-7.4l2.2,7.4H64.1z"/>
		<polygon fill="#FFFFFF" points="80.2,36.1 80.2,24.5 82.1,24.5 82.1,34.4 89.4,34.4 89.4,36.1 		"/>
		<rect x="92.8" y="24.5" fill="#FFFFFF" width="1.8" height="11.7"/>
		<polygon fill="#FFFFFF" points="103.2,36.1 103.2,26.1 98.4,26.1 98.4,24.5 109.8,24.5 109.8,26.1 105,26.1 105,36.1 		"/>
		<polygon fill="#FFFFFF" points="113.4,36.1 113.4,24.5 121.3,24.5 121.3,26.2 115.2,26.2 115.2,29.4 120.5,29.4 120.5,31 
			115.2,30.9 115.2,34.4 121.8,34.4 121.8,36.1 		"/>
	</g>
</g>
<g id="Layer_1">
</g>
</svg>
